<svg width="57" height="23" viewBox="0 0 57 23" fill="none" xmlns="http://www.w3.org/2000/svg">
<rect x="1" y="1" width="55" height="21" rx="4" fill="white" stroke="#FF1F4F" stroke-width="2"/>
<path d="M13.9432 16V7.27273H19.3849V8.40625H15.2599V10.7926H17.2116C17.8594 10.7926 18.4091 10.8977 18.8608 11.108C19.3153 11.3182 19.6619 11.6151 19.9006 11.9986C20.142 12.3821 20.2628 12.8338 20.2628 13.3537C20.2628 13.8736 20.142 14.3324 19.9006 14.7301C19.6619 15.1278 19.3153 15.4389 18.8608 15.6634C18.4091 15.8878 17.8594 16 17.2116 16H13.9432ZM15.2599 14.892H17.2116C17.5866 14.892 17.9034 14.8182 18.1619 14.6705C18.4233 14.5227 18.6207 14.331 18.7543 14.0952C18.8906 13.8594 18.9588 13.6065 18.9588 13.3366C18.9588 12.9446 18.8082 12.608 18.5071 12.3267C18.206 12.0426 17.7741 11.9006 17.2116 11.9006H15.2599V14.892ZM21.8182 16V7.27273H24.929C25.608 7.27273 26.1705 7.39631 26.6165 7.64347C27.0625 7.89062 27.3963 8.22869 27.6179 8.65767C27.8395 9.08381 27.9503 9.56392 27.9503 10.098C27.9503 10.6349 27.8381 11.1179 27.6136 11.5469C27.392 11.973 27.0568 12.3111 26.608 12.5611C26.1619 12.8082 25.6009 12.9318 24.9247 12.9318H22.7855V11.8153H24.8054C25.2344 11.8153 25.5824 11.7415 25.8494 11.5938C26.1165 11.4432 26.3125 11.2386 26.4375 10.9801C26.5625 10.7216 26.625 10.4276 26.625 10.098C26.625 9.76847 26.5625 9.47585 26.4375 9.22017C26.3125 8.96449 26.1151 8.7642 25.8452 8.61932C25.5781 8.47443 25.2259 8.40199 24.7884 8.40199H23.1349V16H21.8182ZM29.3054 16H27.9077L31.0483 7.27273H32.5696L35.7102 16H34.3125L31.8452 8.85795H31.777L29.3054 16ZM29.5398 12.5824H34.0739V13.6903H29.5398V12.5824ZM42.1481 16L39.2163 12.0881H38.2873V16H36.9705V7.27273H38.2873V10.9588H38.7177L42.016 7.27273H43.6225L40.1325 11.1804L43.7546 16H42.1481Z" fill="#FF1F4F"/>
</svg>
