<svg width="26" height="26" viewBox="0 0 26 26" fill="none" xmlns="http://www.w3.org/2000/svg">
<path d="M22.9385 25.0625C23.5242 25.6484 24.4739 25.6484 25.0598 25.0627C25.6456 24.477 25.6457 23.5272 25.06 22.9414L23.9992 24.002L22.9385 25.0625ZM23.9992 24.002C25.06 22.9414 25.06 22.9414 25.0599 22.9413C25.0599 22.9413 25.0599 22.9413 25.0598 22.9412C25.0593 22.9407 25.0598 22.9412 25.0592 22.9406C25.0579 22.9393 25.0588 22.9402 25.057 22.9384C25.0545 22.9359 25.0562 22.9376 25.0532 22.9346C25.0432 22.9246 25.0584 22.9398 25.0479 22.9293C25.0457 22.927 25.0223 22.9037 25.0124 22.8938C25.004 22.8854 25.0149 22.8963 25.0064 22.8878C25.0053 22.8867 25.0043 22.8857 25.0032 22.8846C25.0022 22.8836 25.0011 22.8825 25 22.8814C24.9989 22.8803 24.9978 22.8792 24.9967 22.8781C24.9955 22.8769 24.9944 22.8758 24.9933 22.8746C24.9921 22.8735 24.9909 22.8723 24.9898 22.8712C24.9886 22.87 24.9874 22.8688 24.9862 22.8676C24.985 22.8664 24.9838 22.8651 24.9825 22.8639C24.9813 22.8627 24.98 22.8614 24.9788 22.8602C24.9691 22.8505 24.9808 22.8622 24.971 22.8524C24.9653 22.8467 24.9688 22.8502 24.9629 22.8443C24.9615 22.8429 24.9602 22.8415 24.9587 22.8401C24.9573 22.8387 24.9559 22.8373 24.9545 22.8359C24.9418 22.8232 24.9497 22.8311 24.9366 22.818C24.8558 22.7372 24.9987 22.8801 24.9175 22.7988C24.9061 22.7875 24.9188 22.8002 24.9074 22.7887C24.8539 22.7353 24.9505 22.8319 24.897 22.7783C24.8952 22.7766 24.8934 22.7748 24.8916 22.773C24.8899 22.7712 24.8881 22.7694 24.8862 22.7676C24.8844 22.7658 24.8826 22.764 24.8808 22.7621C24.8789 22.7603 24.8771 22.7584 24.8752 22.7566C24.7371 22.6184 24.8205 22.7018 24.6567 22.538C24.5681 22.4494 24.713 22.5943 24.6241 22.5054C24.5747 22.4561 24.6568 22.5381 24.6073 22.4887C24.5997 22.481 24.598 22.4793 24.5903 22.4716C24.5384 22.4197 24.5729 22.4542 24.5195 22.4008C24.5139 22.3952 24.3764 22.2576 24.3652 22.2465C24.2585 22.1398 24.3066 22.1878 24.1947 22.0759C24.1671 22.0483 24.1325 22.0137 24.1037 21.9849C24.0729 21.9541 24.1112 21.9925 24.0804 21.9616C24.057 21.9382 24.0802 21.9614 24.0568 21.938C23.9992 21.8804 24.0669 21.9481 24.009 21.8902C24.005 21.8862 24.001 21.8822 23.997 21.8781C23.9929 21.8741 23.9889 21.8701 23.9848 21.866C23.972 21.8532 23.9733 21.8545 23.9604 21.8416C23.9448 21.826 23.9514 21.8326 23.9357 21.8169C23.9355 21.8167 23.9112 21.7924 23.9109 21.792C23.8766 21.7578 23.9201 21.8013 23.8858 21.767C23.8582 21.7393 23.8882 21.7694 23.8605 21.7417C23.8563 21.7374 23.852 21.7332 23.8478 21.7289C23.8435 21.7247 23.8393 21.7204 23.835 21.7162C23.8038 21.685 23.8406 21.7217 23.8093 21.6905C23.7881 21.6693 23.8047 21.6858 23.7834 21.6646C23.7791 21.6602 23.7747 21.6559 23.7704 21.6515C23.766 21.6472 23.7617 21.6428 23.7573 21.6384C23.7484 21.6295 23.74 21.6211 23.731 21.6121C23.6849 21.5661 23.7506 21.6318 23.7045 21.5856C23.7001 21.5812 23.6956 21.5767 23.6912 21.5723C23.6867 21.5678 23.6823 21.5634 23.6778 21.5589C23.6677 21.5489 23.661 21.5422 23.6509 21.532C23.6376 21.5188 23.6101 21.4912 23.5965 21.4777C23.5283 21.4094 23.6374 21.5185 23.5691 21.4502C23.5645 21.4456 23.5599 21.441 23.5553 21.4364C23.5507 21.4318 23.5461 21.4272 23.5414 21.4225C23.5368 21.4179 23.5322 21.4133 23.5275 21.4086C23.5229 21.404 23.5183 21.3994 23.5136 21.3947C23.4899 21.371 23.5093 21.3904 23.4856 21.3667C23.4841 21.3652 23.3742 21.2552 23.3718 21.2528C23.367 21.248 23.3622 21.2432 23.3573 21.2384C23.3525 21.2336 23.3477 21.2288 23.3429 21.2239C23.3242 21.2053 23.3325 21.2136 23.3138 21.1949C23.2555 21.1365 23.343 21.2241 23.2846 21.1656C23.2748 21.1559 23.265 21.146 23.2552 21.1362C23.2503 21.1313 23.2454 21.1264 23.2404 21.1215C23.2355 21.1166 23.2306 21.1116 23.2256 21.1067C23.2207 21.1017 23.2158 21.0968 23.2108 21.0918C23.2059 21.0869 23.2009 21.0819 23.1959 21.077C23.1711 21.0522 23.161 21.042 23.136 21.017C23.0734 20.9544 23.0778 20.9589 23.0144 20.8954C22.9797 20.8607 22.9875 20.8685 22.9526 20.8336C22.9475 20.8285 22.9423 20.8233 22.9371 20.8181C22.9319 20.8129 22.9268 20.8077 22.9216 20.8026C22.849 20.73 22.9629 20.8439 22.8904 20.7713C22.8851 20.7661 22.8799 20.7609 22.8747 20.7557C22.8695 20.7504 22.8642 20.7452 22.859 20.74C22.8538 20.7347 22.8485 20.7295 22.8433 20.7242C22.838 20.719 22.8328 20.7137 22.8275 20.7085C22.7524 20.6334 22.8394 20.7204 22.7641 20.6451C22.7335 20.6144 22.7629 20.6439 22.7322 20.6132C22.7269 20.6079 22.7216 20.6025 22.7162 20.5972C22.7109 20.5918 22.7056 20.5865 22.7002 20.5812C22.6846 20.5655 22.6838 20.5647 22.6681 20.549C22.6525 20.5335 22.6514 20.5323 22.6358 20.5167C22.5345 20.4154 22.6724 20.5533 22.5709 20.4518C22.5655 20.4464 22.56 20.4409 22.5546 20.4355C22.5492 20.4301 22.5437 20.4246 22.5383 20.4192C22.4736 20.3545 22.5702 20.4511 22.5055 20.3864C22.4849 20.3658 22.4933 20.3742 22.4727 20.3536C22.4388 20.3197 22.4736 20.3545 22.4397 20.3206C22.4005 20.2814 22.4127 20.2936 22.3734 20.2543C22.3513 20.2321 22.2623 20.1431 22.2396 20.1204C22.1314 20.0123 22.2129 20.0937 22.1042 19.985C22.0331 19.9139 21.9021 19.7829 21.8292 19.71C21.7825 19.6633 21.737 19.6178 21.6899 19.5707C21.6841 19.5648 21.6783 19.559 21.6724 19.5532C21.6666 19.5473 21.6608 19.5415 21.6549 19.5357C21.625 19.5057 21.6498 19.5305 21.6199 19.5006C21.5169 19.3976 21.6526 19.5334 21.5496 19.4303C21.5437 19.4244 21.5378 19.4185 21.5319 19.4126C21.5261 19.4068 21.5202 19.4009 21.5143 19.395C21.5084 19.3891 21.5025 19.3833 21.4967 19.3774C21.4908 19.3715 21.4849 19.3656 21.479 19.3597C21.4731 19.3538 21.4672 19.3479 21.4613 19.342C21.4555 19.3361 21.4496 19.3303 21.4437 19.3244C21.4042 19.2849 21.4477 19.3284 21.4083 19.2889C21.4065 19.2872 21.2681 19.1488 21.2662 19.1468C21.2602 19.1409 21.2543 19.135 21.2484 19.129C21.2424 19.1231 21.2365 19.1171 21.2305 19.1112C21.2246 19.1053 21.2187 19.0993 21.2127 19.0934C21.2068 19.0874 21.2008 19.0815 21.1949 19.0755C21.1889 19.0696 21.183 19.0636 21.177 19.0577C21.1711 19.0517 21.1651 19.0458 21.1592 19.0398C21.1532 19.0339 21.1473 19.0279 21.1413 19.0219C21.1353 19.016 21.1294 19.01 21.1234 19.0041C21.1175 18.9981 21.1115 18.9921 21.1055 18.9862C21.0996 18.9802 21.0936 18.9742 21.0877 18.9683C21.0817 18.9623 21.0757 18.9563 21.0698 18.9504C21.0638 18.9444 21.0578 18.9384 21.0519 18.9325C21.0459 18.9265 21.0399 18.9205 21.0339 18.9146C21.028 18.9086 21.022 18.9026 21.016 18.8966C20.9342 18.8148 21.062 18.9426 20.9802 18.8608C20.9784 18.8591 20.9101 18.7907 20.9084 18.789C20.8427 18.7233 20.9022 18.7828 20.8365 18.7171C20.7949 18.6755 20.8421 18.7227 20.8005 18.6811C20.7989 18.6795 20.7661 18.6467 20.7645 18.6451C20.7457 18.6263 20.7474 18.6279 20.7285 18.6091C20.7225 18.603 20.6986 18.5792 20.6925 18.5731C20.5664 18.4469 20.6746 18.5552 20.5484 18.429C20.5424 18.423 20.5364 18.417 20.5304 18.4109C20.5244 18.4049 20.5184 18.3989 20.5124 18.3929C20.5064 18.3869 20.5004 18.3809 20.4944 18.3749C20.4884 18.3689 20.4824 18.3629 20.4764 18.3569C20.4431 18.3236 20.4737 18.3542 20.4404 18.3209C20.4344 18.3149 20.4284 18.3089 20.4224 18.3029C20.4164 18.2968 20.4103 18.2908 20.4043 18.2848C20.3983 18.2788 20.3923 18.2728 20.3863 18.2668C20.3803 18.2608 20.3743 18.2548 20.3683 18.2488C20.3623 18.2428 20.3563 18.2368 20.3503 18.2308C20.3443 18.2248 20.3383 18.2188 20.3323 18.2128C20.2819 18.1624 20.3107 18.1912 20.2604 18.1408C20.1721 18.0526 20.2048 18.0852 20.1166 17.9971C20.1107 17.9911 20.1047 17.9851 20.0987 17.9791C20.0927 17.9731 20.0867 17.9672 20.0808 17.9612C20.0449 17.9253 20.0808 17.9612 20.0449 17.9253C20.0181 17.8985 20 17.8804 19.9733 17.8537C19.8989 17.7793 19.9761 17.8565 19.9018 17.7822C19.8611 17.7415 19.8711 17.7515 19.8304 17.7108C19.7782 17.6586 19.7402 17.6206 19.6882 17.5686C19.6096 17.49 19.6251 17.5054 19.5468 17.4271C19.5284 17.4087 19.53 17.4103 19.5116 17.3919C19.5057 17.386 19.4998 17.3802 19.494 17.3743C19.4881 17.3684 19.4823 17.3626 19.4764 17.3567C19.4344 17.3147 19.4482 17.3285 19.4063 17.2866C19.4004 17.2807 19.3946 17.2749 19.3888 17.2691C19.3829 17.2632 19.3771 17.2574 19.3713 17.2516C19.3357 17.216 19.3719 17.2522 19.3364 17.2167C19.2744 17.1546 19.3287 17.209 19.2668 17.147C18.9171 16.7973 18.5171 16.3973 18.2033 16.0834L17.1426 17.144L16.0818 18.2045C16.087 18.2098 16.0923 18.215 16.0975 18.2202C16.1028 18.2255 16.108 18.2307 16.1133 18.236C16.1557 18.2784 16.1024 18.2251 16.1448 18.2676C16.1993 18.322 16.1221 18.2448 16.1766 18.2993C16.1819 18.3046 16.1872 18.3099 16.1925 18.3152C16.1978 18.3205 16.2031 18.3258 16.2084 18.3311C16.2137 18.3365 16.2191 18.3418 16.2244 18.3471C16.2297 18.3524 16.235 18.3578 16.2404 18.3631C16.318 18.4408 16.1948 18.3175 16.2725 18.3952C16.3251 18.4479 16.2843 18.407 16.3371 18.4598C16.4599 18.5827 16.3442 18.467 16.4677 18.5905C16.4968 18.6196 16.4715 18.5942 16.5006 18.6234C16.5489 18.6717 16.4853 18.6081 16.5337 18.6565C16.5818 18.7046 16.5518 18.6746 16.6001 18.7229C16.6737 18.7966 16.66 18.7828 16.7342 18.857C16.7703 18.8932 16.7318 18.8546 16.7679 18.8908C16.7752 18.8981 16.7945 18.9174 16.8018 18.9247C16.8742 18.9971 16.7633 18.8862 16.8358 18.9586C16.8777 19.0006 16.8279 18.9507 16.8698 18.9927C16.8755 18.9984 16.8812 19.004 16.8869 19.0097C16.8926 19.0154 16.8983 19.0211 16.904 19.0268C16.9097 19.0325 16.9154 19.0382 16.9211 19.0439C16.9268 19.0496 16.9325 19.0553 16.9382 19.0611C16.9439 19.0668 16.9496 19.0725 16.9553 19.0782C16.961 19.0839 16.9668 19.0896 16.9725 19.0954C16.9849 19.1078 16.9944 19.1173 17.0069 19.1298C17.0093 19.1322 17.0389 19.1618 17.0414 19.1642C17.0471 19.17 17.0529 19.1758 17.0586 19.1815C17.0644 19.1873 17.0701 19.193 17.0759 19.1988C17.0817 19.2046 17.0874 19.2103 17.0932 19.2161C17.099 19.2219 17.1047 19.2277 17.1105 19.2334C17.132 19.2549 17.1237 19.2466 17.1452 19.2681C17.3797 19.5026 17.4697 19.5927 17.7089 19.8319C17.7089 19.832 17.7802 19.9032 17.7803 19.9033C17.786 19.909 17.8102 19.9333 17.816 19.939C17.834 19.9571 17.8337 19.9567 17.8518 19.9748C17.8727 19.9958 17.9023 20.0254 17.9234 20.0464C17.9285 20.0516 17.9899 20.113 17.9951 20.1182C18.0032 20.1263 18.0588 20.1819 18.0669 20.19C18.1461 20.2692 18.0597 20.1828 18.1388 20.2619C18.1717 20.2949 18.1779 20.301 18.2108 20.3339C18.2804 20.4036 18.1772 20.3003 18.2468 20.3699C18.3006 20.4238 18.229 20.3521 18.2828 20.406C18.4299 20.5531 18.4239 20.5471 18.571 20.6942C18.577 20.7002 18.583 20.7062 18.589 20.7122C18.595 20.7182 18.601 20.7242 18.607 20.7302C18.613 20.7362 18.619 20.7422 18.625 20.7482C18.631 20.7542 18.637 20.7602 18.643 20.7662C18.6645 20.7878 18.6934 20.8166 18.715 20.8382C18.7248 20.848 18.777 20.9002 18.7868 20.9101C18.8427 20.966 18.7669 20.8901 18.8227 20.946C18.8348 20.958 18.8466 20.9699 18.8586 20.9819C18.8909 21.0142 18.8622 20.9855 18.8945 21.0177C18.9005 21.0237 18.9064 21.0297 18.9124 21.0357C18.9184 21.0416 18.9244 21.0476 18.9303 21.0536C19.0103 21.1336 18.8862 21.0094 18.9661 21.0894C19.0427 21.166 18.9254 21.0486 19.0019 21.1252C19.0079 21.1311 19.0138 21.1371 19.0198 21.1431C19.0257 21.149 19.0317 21.155 19.0376 21.1609C19.0499 21.1732 19.0611 21.1844 19.0734 21.1966C19.0793 21.2026 19.0852 21.2085 19.0912 21.2145C19.0971 21.2204 19.1031 21.2264 19.109 21.2323C19.1622 21.2855 19.0915 21.2148 19.1446 21.268C19.2003 21.3236 19.1246 21.2479 19.1802 21.3035C19.2134 21.3367 19.1827 21.306 19.2158 21.3391C19.2217 21.345 19.2276 21.3509 19.2335 21.3569C19.2395 21.3628 19.2454 21.3687 19.2513 21.3746C19.2631 21.3864 19.275 21.3983 19.2867 21.4101C19.3098 21.4332 19.4052 21.5286 19.428 21.5514C19.4339 21.5573 19.4398 21.5631 19.4456 21.569C19.4515 21.5748 19.4573 21.5807 19.4632 21.5866C19.4898 21.6132 19.4717 21.5951 19.4983 21.6217C19.5484 21.6718 19.5184 21.6418 19.5684 21.6918C19.6018 21.7252 19.57 21.6933 19.6033 21.7267C19.6385 21.7619 19.603 21.7264 19.6382 21.7616C19.6455 21.7689 19.7005 21.8239 19.7077 21.8311C19.8541 21.9775 19.8381 21.9615 19.9827 22.1061C20.0913 22.2148 20.01 22.1334 20.1181 22.2416C20.1954 22.3189 20.108 22.2315 20.1852 22.3087C20.2115 22.335 20.2257 22.3492 20.2519 22.3754C20.2574 22.3809 20.263 22.3865 20.2685 22.392C20.274 22.3975 20.2796 22.4031 20.2851 22.4086C20.2906 22.4141 20.2961 22.4196 20.3016 22.4252C20.3071 22.4307 20.3127 22.4362 20.3182 22.4417C20.3237 22.4472 20.3292 22.4527 20.3347 22.4582C20.3402 22.4637 20.3456 22.4692 20.3511 22.4747C20.3722 22.4958 20.3629 22.4865 20.384 22.5075C20.3895 22.513 20.3949 22.5185 20.4004 22.5239C20.4058 22.5294 20.4113 22.5348 20.4167 22.5403C20.4222 22.5457 20.4276 22.5512 20.4331 22.5566C20.4385 22.5621 20.4439 22.5675 20.4494 22.5729C20.4933 22.6169 20.438 22.5616 20.4819 22.6054C20.4868 22.6103 20.5095 22.633 20.5143 22.6378C20.5588 22.6824 20.5988 22.7223 20.6426 22.7662C20.6821 22.8057 20.6667 22.7903 20.706 22.8296C20.7458 22.8695 20.6977 22.8213 20.7375 22.8611C20.7427 22.8663 20.7479 22.8716 20.7532 22.8768C20.7584 22.882 20.7636 22.8872 20.7688 22.8924C20.8538 22.9775 20.8086 22.9322 20.8928 23.0165C20.898 23.0216 20.9031 23.0267 20.9082 23.0318C20.9133 23.0369 20.9184 23.042 20.9235 23.0471C20.9343 23.0579 20.9432 23.0669 20.954 23.0776C20.9847 23.1084 20.984 23.1076 21.0145 23.1382C21.0195 23.1432 21.0245 23.1482 21.0295 23.1532C21.0345 23.1582 21.0395 23.1632 21.0445 23.1682C21.0732 23.1969 21.0458 23.1695 21.0744 23.1981C21.0864 23.2101 21.0921 23.2158 21.1041 23.2278C21.1091 23.2327 21.114 23.2377 21.1189 23.2426C21.1238 23.2475 21.1288 23.2524 21.1337 23.2574C21.2037 23.3274 21.1225 23.2462 21.1923 23.316C21.1971 23.3208 21.202 23.3257 21.2068 23.3305C21.2117 23.3354 21.2165 23.3402 21.2213 23.3451C21.2729 23.3966 21.1987 23.3224 21.2502 23.3739C21.3041 23.4278 21.3111 23.4348 21.3641 23.4878C21.3687 23.4925 21.3734 23.4972 21.3781 23.5018C21.3828 23.5065 21.3874 23.5112 21.3921 23.5158C21.4252 23.549 21.3868 23.5105 21.4199 23.5436C21.4636 23.5874 21.4315 23.5553 21.475 23.5988C21.4776 23.6013 21.4998 23.6236 21.5023 23.626C21.5068 23.6306 21.5113 23.6351 21.5159 23.6396C21.5204 23.6441 21.5249 23.6486 21.5294 23.6531C21.5892 23.713 21.5234 23.6471 21.583 23.7067C21.6447 23.7685 21.5478 23.6715 21.6095 23.7333C21.6139 23.7377 21.6183 23.742 21.6226 23.7464C21.627 23.7508 21.6314 23.7552 21.6358 23.7596C21.6401 23.7639 21.6445 23.7683 21.6489 23.7726C21.6532 23.777 21.6575 23.7813 21.6619 23.7857C21.6662 23.79 21.6705 23.7943 21.6749 23.7987C21.6792 23.803 21.6835 23.8073 21.6878 23.8116C21.7209 23.8448 21.7061 23.8299 21.739 23.8628C21.7744 23.8983 21.7289 23.8527 21.7643 23.8881C21.7986 23.9224 21.7551 23.8789 21.7893 23.9132C21.8571 23.9809 21.7714 23.8952 21.8389 23.9627C21.8554 23.9793 21.8712 23.9951 21.8875 24.0113C22.0647 24.1886 22.0867 24.2105 22.2437 24.3676C22.293 24.4169 22.2349 24.3588 22.2838 24.4077C22.2981 24.422 22.309 24.4329 22.3229 24.4468C22.3727 24.4966 22.2925 24.4164 22.3421 24.466C22.3453 24.4692 22.3484 24.4724 22.3516 24.4755C22.3547 24.4787 22.3579 24.4818 22.361 24.4849C22.3669 24.4908 22.3738 24.4978 22.3796 24.5036C22.4136 24.5375 22.3642 24.4881 22.398 24.522C22.5049 24.6289 22.4342 24.5581 22.5352 24.6591C22.6075 24.7315 22.5262 24.6501 22.597 24.7209C22.5994 24.7234 22.6019 24.7259 22.6044 24.7283C22.6068 24.7308 22.6093 24.7332 22.6117 24.7357C22.6374 24.7614 22.6004 24.7244 22.6261 24.7501C22.6736 24.7976 22.6069 24.7309 22.6541 24.778C22.6753 24.7993 22.6599 24.7839 22.6808 24.8048C22.7119 24.8359 22.6756 24.7996 22.7063 24.8303C22.7168 24.8408 22.7206 24.8446 22.7306 24.8546C22.7401 24.8641 22.733 24.857 22.7423 24.8663C22.7442 24.8682 22.7461 24.8701 22.748 24.872C22.7499 24.8739 22.7518 24.8758 22.7537 24.8777C22.8281 24.9522 22.8449 24.9689 22.8909 25.0149C22.9188 25.0428 22.9062 25.0302 22.9264 25.0504C22.9269 25.0509 22.9274 25.0514 22.9279 25.0519C22.9283 25.0524 22.9288 25.0528 22.9292 25.0533C22.9297 25.0537 22.9301 25.0541 22.9305 25.0545C22.9309 25.0549 22.9313 25.0553 22.9317 25.0557C22.933 25.057 22.9325 25.0566 22.9337 25.0578C22.9344 25.0585 22.9349 25.0589 22.9354 25.0595C22.936 25.0601 22.9363 25.0603 22.9368 25.0608C22.9369 25.061 22.9371 25.0612 22.9373 25.0613C22.9374 25.0615 22.9376 25.0616 22.9377 25.0617C22.9378 25.0619 22.9379 25.062 22.938 25.0621C22.9381 25.0622 22.9382 25.0623 22.9383 25.0623C22.9383 25.0624 22.9384 25.0624 22.9384 25.0625C22.9385 25.0625 22.9385 25.0625 23.9992 24.002Z" fill="#2D4059"/>
<path d="M1.5 9.55566C1.50011 5.10657 5.10617 1.5 9.55371 1.5C14.0012 1.50006 17.6073 5.10661 17.6074 9.55566C17.6074 14.0048 14.0013 17.6113 9.55371 17.6113C5.1061 17.6113 1.5 14.0048 1.5 9.55566Z" stroke="#2D4059" stroke-width="3"/>
</svg>
