<svg width="27" height="27" viewBox="0 0 27 27" fill="none" xmlns="http://www.w3.org/2000/svg">
<path d="M24.5 15.5H16.5C15.9477 15.5 15.5 15.9477 15.5 16.5V24.5C15.5 25.0523 15.9477 25.5 16.5 25.5H24.5C25.0523 25.5 25.5 25.0523 25.5 24.5V16.5C25.5 15.9477 25.0523 15.5 24.5 15.5Z" stroke="#2D4059" stroke-width="3"/>
<path d="M10.5 15.5H2.5C1.94772 15.5 1.5 15.9477 1.5 16.5V24.5C1.5 25.0523 1.94772 25.5 2.5 25.5H10.5C11.0523 25.5 11.5 25.0523 11.5 24.5V16.5C11.5 15.9477 11.0523 15.5 10.5 15.5Z" stroke="#2D4059" stroke-width="3"/>
<path d="M24.5 1.5H16.5C15.9477 1.5 15.5 1.94772 15.5 2.5V10.5C15.5 11.0523 15.9477 11.5 16.5 11.5H24.5C25.0523 11.5 25.5 11.0523 25.5 10.5V2.5C25.5 1.94772 25.0523 1.5 24.5 1.5Z" stroke="#2D4059" stroke-width="3"/>
<path d="M10.5 1.5H2.5C1.94772 1.5 1.5 1.94772 1.5 2.5V10.5C1.5 11.0523 1.94772 11.5 2.5 11.5H10.5C11.0523 11.5 11.5 11.0523 11.5 10.5V2.5C11.5 1.94772 11.0523 1.5 10.5 1.5Z" stroke="#2D4059" stroke-width="3"/>
</svg>
