<svg width="27" height="27" viewBox="0 0 27 27" fill="none" xmlns="http://www.w3.org/2000/svg">
<path d="M24.75 1.25H1.75C1.47386 1.25 1.25 1.47386 1.25 1.75V3.07256C1.25 3.3048 1.33083 3.5298 1.47863 3.70894L10.0214 14.0638C10.1692 14.2429 10.25 14.4679 10.25 14.7002V24.4077C10.25 24.7873 10.6562 25.0284 10.9894 24.8467L15.7289 22.2615C16.0501 22.0863 16.25 21.7496 16.25 21.3836V14.7002C16.25 14.4679 16.3308 14.2429 16.4786 14.0638L25.0214 3.70894C25.1692 3.5298 25.25 3.3048 25.25 3.07256V1.75C25.25 1.47386 25.0261 1.25 24.75 1.25Z" stroke="#2D4059" stroke-width="2.5"/>
</svg>
