<svg width="28" height="26" viewBox="0 0 28 26" fill="none" xmlns="http://www.w3.org/2000/svg">
<path d="M10.2083 12.4545V8.09091L15.625 12.4545V8.09091L21.5833 12.4545V8.09091L26.6273 12.1543C26.863 12.3442 27 12.6305 27 12.9331V24C27 24.5523 26.5523 25 26 25H10.2083M10.2083 12.4545V25M10.2083 12.4545L7 12.5M10.2083 25H2C1.44771 25 1 24.5523 1 24V13.4545C1 12.9023 1.44772 12.4545 2 12.4545H3M7 12.5L6.96194 1.99638C6.95995 1.44551 6.51282 1 5.96195 1H4.15222C3.60561 1 3.16028 1.4389 3.15233 1.98545L3 12.4545M7 12.5L3 12.4545M15.625 19H22.125" stroke="#2D4059" stroke-width="2" stroke-linecap="round"/>
</svg>
