<svg width="28" height="25" viewBox="0 0 28 25" fill="none" xmlns="http://www.w3.org/2000/svg">
<path d="M27 24H25.44M1 24H3.08M3.08 24L3.08 6.22727M3.08 24L8.8 24M3.08 6.22727L2.04 6.22727M3.08 6.22727H4.12M25.44 24L25.44 6.22727M25.44 24L20.24 24M25.44 6.22727H26.48M25.44 6.22727L24.4 6.22727M6.72 11.9773H9.23333M12.752 11.9773H15.2653M19.2867 11.9773H21.8M8.8 24H20.24M8.8 24L8.8 20.0795M20.24 24L20.24 20.0795M4.12 6.22727L4.12 2C4.12 1.44771 4.56772 1 5.12 1L10.4 1C10.9523 1 11.4 1.44772 11.4 2V3.09091M4.12 6.22727L11.4 6.22727M11.4 6.22727L11.4 3.09091M11.4 6.22727L24.4 6.22727M11.4 3.09091L23.4 3.09091C23.9523 3.09091 24.4 3.53862 24.4 4.09091V6.22727M20.24 20.0795V19.1591C20.24 17.5022 18.8969 16.1591 17.24 16.1591L11.8 16.1591C10.1431 16.1591 8.8 17.5022 8.8 19.1591V20.0795M20.24 20.0795H8.8" stroke="#2D4059" stroke-width="2" stroke-linecap="round"/>
</svg>
