<svg width="20" height="28" viewBox="0 0 20 28" fill="none" xmlns="http://www.w3.org/2000/svg">
<path d="M11.3846 20.1579H12.4615C13.0138 20.1579 13.4615 20.6056 13.4615 21.1579V26C13.4615 26.5523 13.0138 27 12.4615 27H7.53846C6.98618 27 6.53846 26.5523 6.53846 26V21.1579C6.53846 20.6056 6.98618 20.1579 7.53846 20.1579H8.61539M11.3846 20.1579V9.21053H11.417C12.9285 9.21053 14.1538 10.4359 14.1538 11.9474H18C18.5523 11.9474 19 11.4997 19 10.9474V2C19 1.44772 18.5523 1 18 1H2C1.44772 1 1 1.44772 1 2V10.9474C1 11.4997 1.44771 11.9474 2 11.9474H5.84615C5.84615 10.4359 7.07148 9.21053 8.583 9.21053H8.61539V20.1579M11.3846 20.1579H8.61539M5.84615 5.64286H14.1538" stroke="#2D4059" stroke-width="2" stroke-linecap="round"/>
</svg>
