<svg width="26" height="25" viewBox="0 0 26 25" fill="none" xmlns="http://www.w3.org/2000/svg">
<path d="M5.8 14.3158H9.6C10.1523 14.3158 10.6 14.7635 10.6 15.3158V23C10.6 23.5523 10.1523 24 9.6 24H2C1.44772 24 1 23.5523 1 23V15.3158C1 14.7635 1.44771 14.3158 2 14.3158H5.8ZM5.8 14.3158V17.9474M20.2 14.3158H24C24.5523 14.3158 25 14.7635 25 15.3158V23C25 23.5523 24.5523 24 24 24H16.4C15.8477 24 15.4 23.5523 15.4 23V15.3158C15.4 14.7635 15.8477 14.3158 16.4 14.3158H20.2ZM20.2 14.3158V17.9474M13 1H9.2C8.64772 1 8.2 1.44772 8.2 2V9.68421C8.2 10.2365 8.64772 10.6842 9.2 10.6842H16.8C17.3523 10.6842 17.8 10.2365 17.8 9.68421V2C17.8 1.44772 17.3523 1 16.8 1H13ZM13 1V4.63158" stroke="#2D4059" stroke-width="2" stroke-linecap="round"/>
</svg>
