<svg width="22" height="17" viewBox="0 0 22 17" fill="none" xmlns="http://www.w3.org/2000/svg">
<path d="M22.0001 2.83163C22.0001 2.58115 21.8993 2.34094 21.7199 2.16382C21.5406 1.98671 21.2973 1.88721 21.0436 1.88721H11.0004C10.7468 1.88721 10.5035 1.98671 10.3241 2.16382C10.1447 2.34094 10.0439 2.58115 10.0439 2.83163C10.0439 3.08211 10.1447 3.32233 10.3241 3.49944C10.5035 3.67655 10.7468 3.77606 11.0004 3.77606H21.0436C21.2973 3.77606 21.5406 3.67655 21.7199 3.49944C21.8993 3.32233 22.0001 3.08211 22.0001 2.83163Z" fill="#FF3052"/>
<path d="M0.956492 3.7777H3.51511C3.74074 4.40784 4.18472 4.93892 4.76857 5.2771C5.35243 5.61528 6.03856 5.73877 6.70571 5.62575C7.37286 5.51273 7.97807 5.17047 8.41436 4.65947C8.85066 4.14848 9.08995 3.50164 9.08995 2.83328C9.08995 2.16492 8.85066 1.51808 8.41436 1.00708C7.97807 0.496085 7.37286 0.15383 6.70571 0.0408091C6.03856 -0.0722114 5.35243 0.0512799 4.76857 0.389457C4.18472 0.727634 3.74074 1.25872 3.51511 1.88885H0.956492C0.702815 1.88885 0.459527 1.98836 0.28015 2.16547C0.100773 2.34258 0 2.5828 0 2.83328C0 3.08376 0.100773 3.32397 0.28015 3.50109C0.459527 3.6782 0.702815 3.7777 0.956492 3.7777ZM6.2172 1.88885C6.40637 1.88885 6.5913 1.94424 6.7486 2.04802C6.90589 2.15179 7.02849 2.29929 7.10088 2.47186C7.17328 2.64443 7.19222 2.83433 7.15531 3.01753C7.11841 3.20073 7.02731 3.36901 6.89354 3.50109C6.75977 3.63317 6.58934 3.72312 6.4038 3.75956C6.21826 3.796 6.02594 3.77729 5.85117 3.70581C5.67639 3.63433 5.52701 3.51328 5.4219 3.35797C5.3168 3.20266 5.26071 3.02007 5.26071 2.83328C5.26071 2.5828 5.36148 2.34258 5.54086 2.16547C5.72023 1.98836 5.96352 1.88885 6.2172 1.88885Z" fill="#FF3052"/>
<path d="M21.0431 7.55389H17.528C17.3023 6.92376 16.8584 6.39267 16.2745 6.0545C15.6907 5.71632 15.0045 5.59283 14.3374 5.70585C13.6702 5.81887 13.065 6.16112 12.6287 6.67212C12.1924 7.18312 11.9531 7.82996 11.9531 8.49832C11.9531 9.16668 12.1924 9.81352 12.6287 10.3245C13.065 10.8355 13.6702 11.1778 14.3374 11.2908C15.0045 11.4038 15.6907 11.2803 16.2745 10.9421C16.8584 10.604 17.3023 10.0729 17.528 9.44274H21.0431C21.2968 9.44274 21.54 9.34324 21.7194 9.16613C21.8988 8.98901 21.9996 8.7488 21.9996 8.49832C21.9996 8.24784 21.8988 8.00762 21.7194 7.83051C21.54 7.6534 21.2968 7.55389 21.0431 7.55389ZM14.8259 9.44274C14.6367 9.44274 14.4518 9.38735 14.2945 9.28358C14.1372 9.1798 14.0146 9.03231 13.9422 8.85973C13.8698 8.68716 13.8509 8.49727 13.8878 8.31407C13.9247 8.13087 14.0158 7.96259 14.1495 7.83051C14.2833 7.69843 14.4537 7.60848 14.6393 7.57204C14.8248 7.5356 15.0171 7.5543 15.1919 7.62578C15.3667 7.69726 15.5161 7.81831 15.6212 7.97362C15.7263 8.12893 15.7824 8.31153 15.7824 8.49832C15.7824 8.7488 15.6816 8.98901 15.5022 9.16613C15.3228 9.34324 15.0796 9.44274 14.8259 9.44274Z" fill="#FF3052"/>
<path d="M10.0432 7.55566H0.956492C0.702815 7.55566 0.459527 7.65517 0.28015 7.83228C0.100773 8.00939 0 8.24961 0 8.50009C0 8.75057 0.100773 8.99078 0.28015 9.1679C0.459527 9.34501 0.702815 9.44451 0.956492 9.44451H10.0432C10.2968 9.44451 10.5401 9.34501 10.7195 9.1679C10.8989 8.99078 10.9997 8.75057 10.9997 8.50009C10.9997 8.24961 10.8989 8.00939 10.7195 7.83228C10.5401 7.65517 10.2968 7.55566 10.0432 7.55566Z" fill="#FF3052"/>
<path d="M21.0418 13.2202H12.9116C12.6579 13.2202 12.4146 13.3197 12.2352 13.4968C12.0559 13.6739 11.9551 13.9142 11.9551 14.1646C11.9551 14.4151 12.0559 14.6553 12.2352 14.8324C12.4146 15.0096 12.6579 15.1091 12.9116 15.1091H21.0418C21.2954 15.1091 21.5387 15.0096 21.7181 14.8324C21.8975 14.6553 21.9982 14.4151 21.9982 14.1646C21.9982 13.9142 21.8975 13.6739 21.7181 13.4968C21.5387 13.3197 21.2954 13.2202 21.0418 13.2202Z" fill="#FF3052"/>
<path d="M8.13018 11.3335C7.53735 11.3342 6.95928 11.5161 6.47543 11.8543C5.99158 12.1926 5.6257 12.6705 5.42809 13.2223H0.956492C0.702815 13.2223 0.459527 13.3218 0.28015 13.499C0.100773 13.6761 0 13.9163 0 14.1668C0 14.4172 0.100773 14.6575 0.28015 14.8346C0.459527 15.0117 0.702815 15.1112 0.956492 15.1112H5.42809C5.6035 15.601 5.91194 16.0338 6.31969 16.3623C6.72745 16.6907 7.21881 16.9021 7.74005 16.9733C8.26129 17.0445 8.79233 16.9729 9.27509 16.7662C9.75786 16.5594 10.1738 16.2256 10.4773 15.8012C10.7809 15.3768 10.9604 14.8782 10.9963 14.3598C11.0321 13.8415 10.9229 13.3234 10.6806 12.8622C10.4383 12.4009 10.0723 12.0144 9.62245 11.7448C9.17263 11.4752 8.65639 11.3329 8.13018 11.3335ZM8.13018 15.1112C7.94101 15.1112 7.75608 15.0558 7.59878 14.952C7.44149 14.8483 7.31889 14.7008 7.2465 14.5282C7.17411 14.3556 7.15516 14.1657 7.19207 13.9825C7.22898 13.7993 7.32007 13.631 7.45384 13.499C7.58761 13.3669 7.75804 13.2769 7.94358 13.2405C8.12912 13.2041 8.32144 13.2228 8.49622 13.2942C8.67099 13.3657 8.82038 13.4868 8.92548 13.6421C9.03058 13.7974 9.08668 13.98 9.08668 14.1668C9.08668 14.4172 8.9859 14.6575 8.80653 14.8346C8.62715 15.0117 8.38386 15.1112 8.13018 15.1112Z" fill="#FF3052"/>
</svg>
