<svg width="22" height="17" viewBox="0 0 22 17" fill="none" xmlns="http://www.w3.org/2000/svg">
<path d="M22.0002 2.83163C22.0002 2.58115 21.8994 2.34094 21.7201 2.16382C21.5407 1.98671 21.2974 1.88721 21.0437 1.88721H11.0004C10.7468 1.88721 10.5035 1.98671 10.3241 2.16382C10.1447 2.34094 10.0439 2.58115 10.0439 2.83163C10.0439 3.08211 10.1447 3.32233 10.3241 3.49944C10.5035 3.67655 10.7468 3.77606 11.0004 3.77606H21.0437C21.2974 3.77606 21.5407 3.67655 21.7201 3.49944C21.8994 3.32233 22.0002 3.08211 22.0002 2.83163Z" fill="#777777"/>
<path d="M0.956502 3.7777H3.51514C3.74078 4.40784 4.18476 4.93892 4.76862 5.2771C5.35248 5.61528 6.03862 5.73877 6.70578 5.62575C7.37293 5.51273 7.97815 5.17047 8.41445 4.65947C8.85075 4.14848 9.09005 3.50164 9.09005 2.83328C9.09005 2.16492 8.85075 1.51808 8.41445 1.00708C7.97815 0.496085 7.37293 0.15383 6.70578 0.0408091C6.03862 -0.0722114 5.35248 0.0512799 4.76862 0.389457C4.18476 0.727634 3.74078 1.25872 3.51514 1.88885H0.956502C0.702822 1.88885 0.459532 1.98836 0.280153 2.16547C0.100774 2.34258 0 2.5828 0 2.83328C0 3.08376 0.100774 3.32397 0.280153 3.50109C0.459532 3.6782 0.702822 3.7777 0.956502 3.7777ZM6.21726 1.88885C6.40644 1.88885 6.59137 1.94424 6.74867 2.04802C6.90596 2.15179 7.02856 2.29929 7.10095 2.47186C7.17335 2.64443 7.19229 2.83433 7.15539 3.01753C7.11848 3.20073 7.02738 3.36901 6.89361 3.50109C6.75984 3.63317 6.58941 3.72312 6.40387 3.75956C6.21832 3.796 6.026 3.77729 5.85122 3.70581C5.67645 3.63433 5.52706 3.51328 5.42196 3.35797C5.31686 3.20266 5.26076 3.02007 5.26076 2.83328C5.26076 2.5828 5.36153 2.34258 5.54091 2.16547C5.72029 1.98836 5.96358 1.88885 6.21726 1.88885Z" fill="#777777"/>
<path d="M21.0432 7.55389H17.528C17.3024 6.92376 16.8584 6.39267 16.2746 6.0545C15.6907 5.71632 15.0045 5.59283 14.3374 5.70585C13.6702 5.81887 13.065 6.16112 12.6287 6.67212C12.1924 7.18312 11.9531 7.82996 11.9531 8.49832C11.9531 9.16668 12.1924 9.81352 12.6287 10.3245C13.065 10.8355 13.6702 11.1778 14.3374 11.2908C15.0045 11.4038 15.6907 11.2803 16.2746 10.9421C16.8584 10.604 17.3024 10.0729 17.528 9.44274H21.0432C21.2969 9.44274 21.5401 9.34324 21.7195 9.16613C21.8989 8.98901 21.9997 8.7488 21.9997 8.49832C21.9997 8.24784 21.8989 8.00762 21.7195 7.83051C21.5401 7.6534 21.2969 7.55389 21.0432 7.55389ZM14.8259 9.44274C14.6367 9.44274 14.4518 9.38735 14.2945 9.28358C14.1372 9.1798 14.0146 9.03231 13.9422 8.85973C13.8698 8.68716 13.8509 8.49727 13.8878 8.31407C13.9247 8.13087 14.0158 7.96259 14.1496 7.83051C14.2833 7.69843 14.4538 7.60848 14.6393 7.57204C14.8248 7.5356 15.0172 7.5543 15.1919 7.62578C15.3667 7.69726 15.5161 7.81831 15.6212 7.97362C15.7263 8.12893 15.7824 8.31153 15.7824 8.49832C15.7824 8.7488 15.6816 8.98901 15.5023 9.16613C15.3229 9.34324 15.0796 9.44274 14.8259 9.44274Z" fill="#777777"/>
<path d="M10.0433 7.55566H0.956502C0.702822 7.55566 0.459532 7.65517 0.280153 7.83228C0.100774 8.00939 0 8.24961 0 8.50009C0 8.75057 0.100774 8.99078 0.280153 9.1679C0.459532 9.34501 0.702822 9.44451 0.956502 9.44451H10.0433C10.2969 9.44451 10.5402 9.34501 10.7196 9.1679C10.899 8.99078 10.9998 8.75057 10.9998 8.50009C10.9998 8.24961 10.899 8.00939 10.7196 7.83228C10.5402 7.65517 10.2969 7.55566 10.0433 7.55566Z" fill="#777777"/>
<path d="M21.0418 13.2202H12.9116C12.6579 13.2202 12.4146 13.3197 12.2352 13.4968C12.0559 13.6739 11.9551 13.9142 11.9551 14.1646C11.9551 14.4151 12.0559 14.6553 12.2352 14.8324C12.4146 15.0096 12.6579 15.1091 12.9116 15.1091H21.0418C21.2955 15.1091 21.5388 15.0096 21.7182 14.8324C21.8976 14.6553 21.9983 14.4151 21.9983 14.1646C21.9983 13.9142 21.8976 13.6739 21.7182 13.4968C21.5388 13.3197 21.2955 13.2202 21.0418 13.2202Z" fill="#777777"/>
<path d="M8.13027 11.3335C7.53743 11.3342 6.95935 11.5161 6.4755 11.8543C5.99164 12.1926 5.62576 12.6705 5.42815 13.2223H0.956502C0.702822 13.2223 0.459532 13.3218 0.280153 13.499C0.100774 13.6761 0 13.9163 0 14.1668C0 14.4172 0.100774 14.6575 0.280153 14.8346C0.459532 15.0117 0.702822 15.1112 0.956502 15.1112H5.42815C5.60355 15.601 5.912 16.0338 6.31976 16.3623C6.72752 16.6907 7.21889 16.9021 7.74013 16.9733C8.26137 17.0445 8.79241 16.9729 9.27519 16.7662C9.75796 16.5594 10.1739 16.2256 10.4774 15.8012C10.781 15.3768 10.9605 14.8782 10.9964 14.3598C11.0322 13.8415 10.923 13.3234 10.6807 12.8622C10.4384 12.4009 10.0724 12.0144 9.62254 11.7448C9.17272 11.4752 8.65648 11.3329 8.13027 11.3335ZM8.13027 15.1112C7.94109 15.1112 7.75616 15.0558 7.59886 14.952C7.44157 14.8483 7.31897 14.7008 7.24657 14.5282C7.17418 14.3556 7.15524 14.1657 7.19214 13.9825C7.22905 13.7993 7.32015 13.631 7.45392 13.499C7.58769 13.3669 7.75812 13.2769 7.94366 13.2405C8.1292 13.2041 8.32153 13.2228 8.4963 13.2942C8.67108 13.3657 8.82047 13.4868 8.92557 13.6421C9.03067 13.7974 9.08677 13.98 9.08677 14.1668C9.08677 14.4172 8.98599 14.6575 8.80661 14.8346C8.62724 15.0117 8.38395 15.1112 8.13027 15.1112Z" fill="#777777"/>
</svg>
