<svg width="21" height="21" viewBox="0 0 21 21" fill="none" xmlns="http://www.w3.org/2000/svg">
<path d="M10.5 0C8.4233 0 6.39323 0.615814 4.66652 1.76957C2.9398 2.92332 1.59399 4.5632 0.799269 6.48182C0.00454948 8.40045 -0.203386 10.5116 0.201759 12.5484C0.606904 14.5852 1.60693 16.4562 3.07538 17.9246C4.54383 19.3931 6.41476 20.3931 8.45156 20.7982C10.4884 21.2034 12.5996 20.9955 14.5182 20.2007C16.4368 19.406 18.0767 18.0602 19.2304 16.3335C20.3842 14.6068 21 12.5767 21 10.5C21 9.12112 20.7284 7.75574 20.2007 6.48182C19.6731 5.2079 18.8996 4.05039 17.9246 3.07538C16.9496 2.10036 15.7921 1.32694 14.5182 0.799265C13.2443 0.271591 11.8789 0 10.5 0ZM10.5 18.9C8.83864 18.9 7.21459 18.4073 5.83321 17.4843C4.45184 16.5613 3.37519 15.2494 2.73942 13.7145C2.10364 12.1796 1.93729 10.4907 2.26141 8.86124C2.58552 7.2318 3.38555 5.73506 4.56031 4.5603C5.73507 3.38554 7.2318 2.58552 8.86125 2.2614C10.4907 1.93729 12.1796 2.10364 13.7145 2.73941C15.2494 3.37519 16.5613 4.45184 17.4843 5.83321C18.4073 7.21458 18.9 8.83864 18.9 10.5C18.9 12.7278 18.015 14.8644 16.4397 16.4397C14.8644 18.015 12.7278 18.9 10.5 18.9Z" fill="#666EFE"/>
<path d="M10.5002 7.35C11.0801 7.35 11.5502 6.8799 11.5502 6.3C11.5502 5.7201 11.0801 5.25 10.5002 5.25C9.9203 5.25 9.4502 5.7201 9.4502 6.3C9.4502 6.8799 9.9203 7.35 10.5002 7.35Z" fill="#666EFE"/>
<path d="M10.5002 8.3999C10.2217 8.3999 9.95465 8.51053 9.75773 8.70744C9.56082 8.90435 9.4502 9.17142 9.4502 9.4499V14.6999C9.4502 14.9784 9.56082 15.2455 9.75773 15.4424C9.95465 15.6393 10.2217 15.7499 10.5002 15.7499C10.7787 15.7499 11.0457 15.6393 11.2427 15.4424C11.4396 15.2455 11.5502 14.9784 11.5502 14.6999V9.4499C11.5502 9.17142 11.4396 8.90435 11.2427 8.70744C11.0457 8.51053 10.7787 8.3999 10.5002 8.3999Z" fill="#666EFE"/>
</svg>
