<svg width="23" height="23" viewBox="0 0 23 23" fill="none" xmlns="http://www.w3.org/2000/svg">
<path fill-rule="evenodd" clip-rule="evenodd" d="M12.668 0.700412C13.1755 0.0238459 14.0952 -0.193365 14.8516 0.184787L17.0059 1.26291C17.724 1.62207 18.1048 2.42348 17.9307 3.20725L17.6944 4.26877L18.4698 5.04416L19.2208 4.85666C20.0538 4.64851 20.9145 5.07633 21.253 5.86545L22.1007 7.84006C22.4657 8.69173 22.1023 9.68154 21.2735 10.0959L20.5421 10.4612V11.4358L21.5958 12.2268C22.2412 12.7111 22.4721 13.5739 22.1544 14.3156L21.253 16.4172C20.9146 17.2065 20.0539 17.6342 19.2208 17.426L18.4698 17.2385L17.7051 18.0031L17.9132 18.8322C18.1033 19.5928 17.7647 20.3876 17.0841 20.7766L14.9112 22.0178C14.145 22.4554 13.1731 22.254 12.6436 21.5481L11.9044 20.5627H10.337L9.59773 21.5481C9.06826 22.2539 8.09635 22.4554 7.33015 22.0178L5.12995 20.76C4.47614 20.3862 4.13364 19.6362 4.28132 18.8977L4.55378 17.5334L3.77058 16.7492L3.02155 16.9377C2.1883 17.146 1.32673 16.7184 0.988351 15.9289L0.141672 13.9533C-0.223088 13.1018 0.139191 12.1138 0.967843 11.6994L1.69929 11.3332V10.4612L0.973703 10.0988C0.139831 9.68184 -0.220249 8.68407 0.154367 7.83029L1.02155 5.85276C1.36553 5.06909 2.22631 4.64868 3.05573 4.85959L3.77253 5.04319L4.54597 4.26877L4.31062 3.20725C4.13654 2.42342 4.51823 1.622 5.2364 1.26291L7.38972 0.184787C8.14617 -0.193438 9.06586 0.023839 9.57331 0.700412L10.337 1.71994H11.9044L12.668 0.700412ZM12.7794 3.46994H9.46198L8.17292 1.75022L6.01862 2.82834L6.46296 4.82736L6.12312 5.16721L4.30671 6.98459L2.62409 6.55588L1.75691 8.53342L3.44929 9.37912V12.4143L1.75007 13.2639L2.59675 15.2395L3.82722 14.9319L4.30769 14.8127L6.45417 16.9592L6.36237 17.4172L5.99812 19.2414L8.19831 20.4983L9.46198 18.8127H12.7794L14.043 20.4983L16.2159 19.2571L15.8878 17.9465L15.7686 17.466L17.9337 15.3L19.6456 15.7287L20.546 13.6262L19.1417 12.5744L18.7921 12.3108V9.37912L20.4913 8.53049L19.6456 6.5549L17.9337 6.98264L16.1192 5.16721L15.7784 4.82736L16.2227 2.82834L14.0684 1.75022L12.7794 3.46994ZM11.1212 6.56076C13.651 6.56091 15.7022 8.61196 15.7022 11.1418C15.702 13.6715 13.6509 15.7217 11.1212 15.7219C8.59134 15.7219 6.54031 13.6716 6.54011 11.1418C6.54011 8.61187 8.59121 6.56076 11.1212 6.56076ZM11.1212 8.31076C9.55771 8.31076 8.29011 9.57837 8.29011 11.1418C8.29031 12.7051 9.55784 13.9719 11.1212 13.9719C12.6844 13.9717 13.952 12.705 13.9522 11.1418C13.9522 9.57846 12.6845 8.31091 11.1212 8.31076Z" fill="#FF3052"/>
</svg>
