<svg width="20" height="8" viewBox="0 0 20 8" fill="none" xmlns="http://www.w3.org/2000/svg">
<path d="M5.11914 6.75146V7.82031H0.967285V6.75146H5.11914ZM1.34863 0V7.82031H0.000488281V0H1.34863ZM4.57666 3.26562V4.31836H0.967285V3.26562H4.57666ZM5.09229 0V1.07422H0.967285V0H5.09229ZM6.22021 0H8.98633C9.58073 0 10.0874 0.0895182 10.5063 0.268555C10.9253 0.447591 11.2458 0.712565 11.4678 1.06348C11.6934 1.41081 11.8062 1.84049 11.8062 2.35254C11.8062 2.74284 11.7345 3.08659 11.5913 3.38379C11.4481 3.68099 11.2458 3.93164 10.9844 4.13574C10.723 4.33626 10.4115 4.49202 10.0498 4.60303L9.6416 4.80176H7.15479L7.14404 3.73291H9.00781C9.33008 3.73291 9.59863 3.67562 9.81348 3.56104C10.0283 3.44645 10.1895 3.29069 10.2969 3.09375C10.4079 2.89323 10.4634 2.66764 10.4634 2.41699C10.4634 2.14486 10.4097 1.90853 10.3022 1.70801C10.1984 1.50391 10.0373 1.34814 9.81885 1.24072C9.60042 1.12972 9.32292 1.07422 8.98633 1.07422H7.56836V7.82031H6.22021V0ZM10.6836 7.82031L8.84668 4.30762L10.2593 4.30225L12.123 7.75049V7.82031H10.6836ZM13.1489 0H15.915C16.5094 0 17.0161 0.0895182 17.4351 0.268555C17.854 0.447591 18.1745 0.712565 18.3965 1.06348C18.6221 1.41081 18.7349 1.84049 18.7349 2.35254C18.7349 2.74284 18.6632 3.08659 18.52 3.38379C18.3768 3.68099 18.1745 3.93164 17.9131 4.13574C17.6517 4.33626 17.3402 4.49202 16.9785 4.60303L16.5703 4.80176H14.0835L14.0728 3.73291H15.9365C16.2588 3.73291 16.5273 3.67562 16.7422 3.56104C16.957 3.44645 17.1182 3.29069 17.2256 3.09375C17.3366 2.89323 17.3921 2.66764 17.3921 2.41699C17.3921 2.14486 17.3384 1.90853 17.231 1.70801C17.1271 1.50391 16.966 1.34814 16.7476 1.24072C16.5291 1.12972 16.2516 1.07422 15.915 1.07422H14.4971V7.82031H13.1489V0ZM17.6123 7.82031L15.7754 4.30762L17.188 4.30225L19.0518 7.75049V7.82031H17.6123Z" fill="#FF0000"/>
</svg>
