<svg width="30" height="17" viewBox="0 0 30 17" fill="none" xmlns="http://www.w3.org/2000/svg">
<rect width="30" height="17" rx="2" fill="#FF3052"/>
<path d="M10.875 10.9312V12H6.72314V10.9312H10.875ZM7.10449 4.17969V12H5.75635V4.17969H7.10449ZM10.3325 7.44531V8.49805H6.72314V7.44531H10.3325ZM10.8481 4.17969V5.25391H6.72314V4.17969H10.8481ZM11.9761 4.17969H14.7422C15.3366 4.17969 15.8433 4.26921 16.2622 4.44824C16.6812 4.62728 17.0016 4.89225 17.2236 5.24316C17.4492 5.59049 17.562 6.02018 17.562 6.53223C17.562 6.92253 17.4904 7.26628 17.3472 7.56348C17.2039 7.86068 17.0016 8.11133 16.7402 8.31543C16.4788 8.51595 16.1673 8.67171 15.8057 8.78271L15.3975 8.98145H12.9106L12.8999 7.9126H14.7637C15.0859 7.9126 15.3545 7.85531 15.5693 7.74072C15.7842 7.62614 15.9453 7.47038 16.0527 7.27344C16.1637 7.07292 16.2192 6.84733 16.2192 6.59668C16.2192 6.32454 16.1655 6.08822 16.0581 5.8877C15.9543 5.68359 15.7931 5.52783 15.5747 5.42041C15.3563 5.30941 15.0788 5.25391 14.7422 5.25391H13.3242V12H11.9761V4.17969ZM16.4395 12L14.6025 8.4873L16.0151 8.48193L17.8789 11.9302V12H16.4395ZM18.9048 4.17969H21.6709C22.2653 4.17969 22.772 4.26921 23.1909 4.44824C23.6099 4.62728 23.9303 4.89225 24.1523 5.24316C24.3779 5.59049 24.4907 6.02018 24.4907 6.53223C24.4907 6.92253 24.4191 7.26628 24.2759 7.56348C24.1326 7.86068 23.9303 8.11133 23.6689 8.31543C23.4076 8.51595 23.096 8.67171 22.7344 8.78271L22.3262 8.98145H19.8394L19.8286 7.9126H21.6924C22.0146 7.9126 22.2832 7.85531 22.498 7.74072C22.7129 7.62614 22.874 7.47038 22.9814 7.27344C23.0924 7.07292 23.1479 6.84733 23.1479 6.59668C23.1479 6.32454 23.0942 6.08822 22.9868 5.8877C22.883 5.68359 22.7218 5.52783 22.5034 5.42041C22.285 5.30941 22.0075 5.25391 21.6709 5.25391H20.2529V12H18.9048V4.17969ZM23.3682 12L21.5312 8.4873L22.9438 8.48193L24.8076 11.9302V12H23.3682Z" fill="#F5F7F9"/>
</svg>
