<svg width="10" height="16" viewBox="0 0 10 16" fill="none" xmlns="http://www.w3.org/2000/svg">
<path d="M5.69231 11.5526H5.73077C6.28305 11.5526 6.73077 12.0003 6.73077 12.5526V14.5C6.73077 15.0523 6.28305 15.5 5.73077 15.5H4.26923C3.71695 15.5 3.26923 15.0523 3.26923 14.5V12.5526C3.26923 12.0003 3.71695 11.5526 4.26923 11.5526H4.30769M5.69231 11.5526V5.23684C6.45701 5.23684 7.07692 5.85676 7.07692 6.62146V6.81579H8.5C9.05229 6.81579 9.5 6.36807 9.5 5.81579V1.5C9.5 0.947714 9.05228 0.5 8.5 0.5H1.5C0.947715 0.5 0.5 0.947714 0.5 1.5V5.81579C0.5 6.36807 0.947715 6.81579 1.5 6.81579H2.92308V6.62146C2.92308 5.85676 3.54299 5.23684 4.30769 5.23684V11.5526M5.69231 11.5526H4.30769M2.92308 3.17857H7.07692" stroke="#777777" stroke-linecap="round"/>
</svg>
