<svg width="16" height="15" viewBox="0 0 16 15" fill="none" xmlns="http://www.w3.org/2000/svg">
<path d="M3.5 8.60526H5.5C6.05228 8.60526 6.5 9.05298 6.5 9.60526V13.5C6.5 14.0523 6.05228 14.5 5.5 14.5H1.5C0.947715 14.5 0.5 14.0523 0.5 13.5V9.60526C0.5 9.05298 0.947715 8.60526 1.5 8.60526H3.5ZM3.5 8.60526V10.8158M12.5 8.60526H14.5C15.0523 8.60526 15.5 9.05298 15.5 9.60526V13.5C15.5 14.0523 15.0523 14.5 14.5 14.5H10.5C9.94772 14.5 9.5 14.0523 9.5 13.5V9.60526C9.5 9.05298 9.94772 8.60526 10.5 8.60526H12.5ZM12.5 8.60526V10.8158M8 0.5H6C5.44772 0.5 5 0.947716 5 1.5V5.39474C5 5.94702 5.44772 6.39474 6 6.39474H10C10.5523 6.39474 11 5.94702 11 5.39474V1.5C11 0.947715 10.5523 0.5 10 0.5H8ZM8 0.5V2.71053" stroke="#777777" stroke-linecap="round"/>
</svg>
