<svg width="18" height="9" viewBox="0 0 18 9" fill="none" xmlns="http://www.w3.org/2000/svg">
<path d="M17.5 7.5V1.5C17.5 0.947715 17.0523 0.5 16.5 0.5L1.5 0.5C0.947716 0.5 0.5 0.947715 0.5 1.5V7.5C0.5 8.05228 0.947716 8.5 1.5 8.5L16.5 8.5C17.0523 8.5 17.5 8.05228 17.5 7.5Z" stroke="#777777"/>
<path d="M13.25 1.91211H14.5C15.0523 1.91211 15.5 2.35982 15.5 2.91211V6.08867C15.5 6.64095 15.0523 7.08867 14.5 7.08867H13.25C12.6977 7.08867 12.25 6.64095 12.25 6.08867V2.91211C12.25 2.35982 12.6977 1.91211 13.25 1.91211Z" fill="#777777"/>
<path d="M2.5 6.08867V2.91211C2.5 2.35982 2.94771 1.91211 3.5 1.91211L4.75 1.91211C5.30228 1.91211 5.75 2.35982 5.75 2.91211V6.08867C5.75 6.64095 5.30229 7.08867 4.75 7.08867H3.5C2.94772 7.08867 2.5 6.64095 2.5 6.08867Z" fill="#777777"/>
<path d="M8.375 1.91211L9.625 1.91211C10.1773 1.91211 10.625 2.35982 10.625 2.91211V6.08867C10.625 6.64095 10.1773 7.08867 9.625 7.08867H8.375C7.82272 7.08867 7.375 6.64095 7.375 6.08867V2.91211C7.375 2.35982 7.82272 1.91211 8.375 1.91211Z" fill="#777777"/>
</svg>
