<svg width="30" height="17" viewBox="0 0 30 17" fill="none" xmlns="http://www.w3.org/2000/svg">
<rect width="30" height="17" rx="2" fill="#666EFE"/>
<path d="M14.6938 7.875V8.30469C14.6938 8.89551 14.6169 9.42546 14.4629 9.89453C14.3089 10.3636 14.0887 10.7629 13.8022 11.0923C13.5194 11.4217 13.1792 11.6742 12.7817 11.8496C12.3843 12.0215 11.9438 12.1074 11.4604 12.1074C10.9806 12.1074 10.542 12.0215 10.1445 11.8496C9.75065 11.6742 9.40869 11.4217 9.11865 11.0923C8.82861 10.7629 8.60303 10.3636 8.44189 9.89453C8.28434 9.42546 8.20557 8.89551 8.20557 8.30469V7.875C8.20557 7.28418 8.28434 6.75602 8.44189 6.29053C8.59945 5.82145 8.82145 5.4222 9.10791 5.09277C9.39795 4.75977 9.73991 4.50732 10.1338 4.33545C10.5312 4.15999 10.9699 4.07227 11.4497 4.07227C11.9331 4.07227 12.3735 4.15999 12.771 4.33545C13.1685 4.50732 13.5104 4.75977 13.7969 5.09277C14.0833 5.4222 14.3035 5.82145 14.4575 6.29053C14.6151 6.75602 14.6938 7.28418 14.6938 7.875ZM13.3457 8.30469V7.86426C13.3457 7.42741 13.3027 7.04248 13.2168 6.70947C13.1344 6.37288 13.0109 6.0918 12.8462 5.86621C12.6851 5.63704 12.4863 5.46517 12.25 5.35059C12.0137 5.23242 11.7469 5.17334 11.4497 5.17334C11.1525 5.17334 10.8875 5.23242 10.6548 5.35059C10.422 5.46517 10.2233 5.63704 10.0586 5.86621C9.89746 6.0918 9.77393 6.37288 9.68799 6.70947C9.60205 7.04248 9.55908 7.42741 9.55908 7.86426V8.30469C9.55908 8.74154 9.60205 9.12826 9.68799 9.46484C9.77393 9.80143 9.89925 10.0861 10.064 10.3188C10.2323 10.548 10.4328 10.7217 10.6655 10.8398C10.8983 10.9544 11.1632 11.0117 11.4604 11.0117C11.7612 11.0117 12.028 10.9544 12.2607 10.8398C12.4935 10.7217 12.6904 10.548 12.8516 10.3188C13.0127 10.0861 13.1344 9.80143 13.2168 9.46484C13.3027 9.12826 13.3457 8.74154 13.3457 8.30469ZM17.4116 4.17969V12H16.0688V4.17969H17.4116ZM22.1167 4.17969L18.937 8.6377H17.0303L16.8477 7.4668H18.1904L20.4678 4.17969H22.1167ZM20.7417 12L18.2119 8.43359L19.082 7.39697L22.3584 12H20.7417Z" fill="#F5F7F9"/>
</svg>
