<svg width="30" height="17" viewBox="0 0 30 17" fill="none" xmlns="http://www.w3.org/2000/svg">
<rect width="30" height="17" rx="2" fill="#666EFE"/>
<path d="M10.0908 9.4541H11.4336C11.3906 9.96615 11.2474 10.4227 11.0039 10.8237C10.7604 11.2212 10.4185 11.5345 9.97803 11.7637C9.5376 11.9928 9.00228 12.1074 8.37207 12.1074C7.88867 12.1074 7.45361 12.0215 7.06689 11.8496C6.68018 11.6742 6.34896 11.4271 6.07324 11.1084C5.79753 10.7861 5.58626 10.3976 5.43945 9.94287C5.29622 9.48812 5.22461 8.97965 5.22461 8.41748V7.76758C5.22461 7.2054 5.29801 6.69694 5.44482 6.24219C5.59521 5.78743 5.81006 5.39893 6.08936 5.07666C6.36865 4.75081 6.70345 4.50195 7.09375 4.33008C7.48763 4.1582 7.92985 4.07227 8.42041 4.07227C9.04346 4.07227 9.56982 4.18685 9.99951 4.41602C10.4292 4.64518 10.7622 4.96208 10.9985 5.3667C11.2384 5.77132 11.3853 6.23503 11.439 6.75781H10.0962C10.0604 6.42122 9.98161 6.13298 9.85986 5.89307C9.7417 5.65316 9.56624 5.47054 9.3335 5.34521C9.10075 5.21631 8.79639 5.15186 8.42041 5.15186C8.11247 5.15186 7.84391 5.20915 7.61475 5.32373C7.38558 5.43831 7.19401 5.60661 7.04004 5.82861C6.88607 6.05062 6.76969 6.32454 6.69092 6.65039C6.61572 6.97266 6.57812 7.34147 6.57812 7.75684V8.41748C6.57812 8.81136 6.61214 9.16943 6.68018 9.4917C6.75179 9.81038 6.85921 10.0843 7.00244 10.3135C7.14925 10.5426 7.33545 10.7199 7.56104 10.8452C7.78662 10.9705 8.05697 11.0332 8.37207 11.0332C8.75521 11.0332 9.06494 10.9723 9.30127 10.8506C9.54118 10.7288 9.72201 10.5516 9.84375 10.3188C9.96908 10.0825 10.0514 9.79427 10.0908 9.4541ZM17.6587 4.17969V5.25391H14.0278V12H12.6851V4.17969H17.6587ZM24.0557 10.9312V12H18.2925V10.9312H24.0557ZM18.6255 10.9312V13.9229H17.3364L17.2881 10.9312H18.6255ZM25.0977 10.9312L25.0171 13.9175H23.7495V10.9312H25.0977ZM23.1104 4.17969V5.25391H19.501V4.17969H23.1104ZM24.1416 4.17969V12H22.7988V4.17969H24.1416ZM19.2324 4.17969H20.5806L20.3926 7.34863C20.3639 7.84993 20.312 8.30111 20.2368 8.70215C20.1616 9.10319 20.0703 9.46305 19.9629 9.78174C19.859 10.0968 19.7409 10.3761 19.6084 10.6196C19.4759 10.8595 19.3345 11.0672 19.1841 11.2427C19.0337 11.4181 18.8797 11.5685 18.7222 11.6938C18.5682 11.8156 18.416 11.9176 18.2656 12H17.5459V10.9312H17.895C17.9917 10.8416 18.0991 10.7127 18.2173 10.5444C18.3354 10.3726 18.45 10.1488 18.561 9.87305C18.6756 9.59375 18.7759 9.24821 18.8618 8.83643C18.9478 8.42464 19.0068 7.92871 19.0391 7.34863L19.2324 4.17969Z" fill="#F5F7F9"/>
</svg>
