<svg width="222" height="297" viewBox="0 0 222 297" fill="none" xmlns="http://www.w3.org/2000/svg">
<path fill-rule="evenodd" clip-rule="evenodd" d="M201 1C212.046 1 221 9.9543 221 21V276C221 287.046 212.046 296 201 296H21C9.95431 296 1 287.046 1 276V21C1 9.9543 9.9543 1 21 1H201Z" fill="#F5F5F5" stroke="url(#paint0_linear_448_3591)" stroke-width="2"/>
<circle cx="131.786" cy="44.289" r="0.750058" transform="rotate(-180 131.786 44.289)" fill="#777777" fill-opacity="0.5"/>
<circle cx="155.786" cy="38.289" r="0.750058" transform="rotate(-180 155.786 38.289)" fill="#777777" fill-opacity="0.6"/>
<circle cx="49.8154" cy="42.4824" r="0.750058" transform="rotate(-180 49.8154 42.4824)" fill="#777777" fill-opacity="0.6"/>
<circle cx="37.6632" cy="116.008" r="1.12493" transform="rotate(-180 37.6632 116.008)" fill="#777777" fill-opacity="0.6"/>
<circle cx="87.3507" cy="129.688" r="1.12493" transform="rotate(-180 87.3507 129.688)" fill="#777777" fill-opacity="0.6"/>
<circle cx="106.161" cy="40.6641" r="1.12493" transform="rotate(-180 106.161 40.6641)" fill="#777777" fill-opacity="0.5"/>
<circle cx="56.1612" cy="141.664" r="1.12493" transform="rotate(-180 56.1612 141.664)" fill="#777777" fill-opacity="0.16"/>
<circle cx="81.4561" cy="120.236" r="1.12493" transform="rotate(-180 81.4561 120.236)" fill="#777777" fill-opacity="0.5"/>
<circle cx="56.0225" cy="67.8809" r="1.12493" transform="rotate(-180 56.0225 67.8809)" fill="#777777" fill-opacity="0.16"/>
<circle cx="34.6397" cy="52.9805" r="1.12493" transform="rotate(-180 34.6397 52.9805)" fill="#777777" fill-opacity="0.6"/>
<circle cx="79.1612" cy="19.6641" r="1.12493" transform="rotate(-180 79.1612 19.6641)" fill="#777777" fill-opacity="0.7"/>
<circle cx="195.411" cy="158.914" r="0.374874" transform="rotate(-180 195.411 158.914)" fill="#777777" fill-opacity="0.5"/>
<circle cx="161.327" cy="141.891" r="0.374874" transform="rotate(-180 161.327 141.891)" fill="#777777" fill-opacity="0.6"/>
<circle cx="198.243" cy="112.543" r="0.374874" transform="rotate(-180 198.243 112.543)" fill="#777777" fill-opacity="0.16"/>
<circle cx="109.794" cy="79.131" r="0.374874" transform="rotate(-180 109.794 79.131)" fill="#777777" fill-opacity="0.6"/>
<circle cx="192.151" cy="130.152" r="0.374874" transform="rotate(-180 192.151 130.152)" fill="#777777" fill-opacity="0.6"/>
<circle cx="84.8663" cy="134.996" r="0.374874" transform="rotate(-180 84.8663 134.996)" fill="#777777" fill-opacity="0.16"/>
<circle cx="73.6476" cy="32.7052" r="0.374874" transform="rotate(-180 73.6476 32.7052)" fill="#777777" fill-opacity="0.5"/>
<circle cx="84.4503" cy="96.2638" r="0.374874" transform="rotate(-180 84.4503 96.2638)" fill="#777777" fill-opacity="0.16"/>
<circle cx="201.411" cy="57.9142" r="0.374874" transform="rotate(-180 201.411 57.9142)" fill="#777777" fill-opacity="0.6"/>
<circle cx="151.73" cy="169.871" r="0.374874" transform="rotate(-180 151.73 169.871)" fill="#777777" fill-opacity="0.6"/>
<circle cx="148.263" cy="70.1564" r="0.374874" transform="rotate(-180 148.263 70.1564)" fill="#777777" fill-opacity="0.7"/>
<circle cx="213.411" cy="84.9142" r="0.374874" transform="rotate(-180 213.411 84.9142)" fill="#777777" fill-opacity="0.5"/>
<circle cx="39.4113" cy="87.9142" r="0.374874" transform="rotate(-180 39.4113 87.9142)" fill="#777777" fill-opacity="0.16"/>
<circle cx="61.2101" cy="110.18" r="0.374874" transform="rotate(-180 61.2101 110.18)" fill="#777777" fill-opacity="0.6"/>
<circle cx="181.853" cy="20.5939" r="0.374874" transform="rotate(-180 181.853 20.5939)" fill="#777777" fill-opacity="0.16"/>
<circle cx="147.431" cy="114.195" r="0.374874" transform="rotate(-180 147.431 114.195)" fill="#777777" fill-opacity="0.5"/>
<circle cx="67.4113" cy="42.9142" r="0.374874" transform="rotate(-180 67.4113 42.9142)" fill="#777777" fill-opacity="0.6"/>
<circle cx="147.407" cy="62.8068" r="0.374874" transform="rotate(-180 147.407 62.8068)" fill="#777777" fill-opacity="0.16"/>
<circle cx="158.749" cy="67.3243" r="0.374874" transform="rotate(-180 158.749 67.3243)" fill="#777777" fill-opacity="0.6"/>
<circle cx="37.4113" cy="75.9142" r="0.374874" transform="rotate(-180 37.4113 75.9142)" fill="#777777" fill-opacity="0.5"/>
<circle cx="130.499" cy="39.1681" r="0.374874" transform="rotate(-180 130.499 39.1681)" fill="#777777" fill-opacity="0.16"/>
<circle cx="34.4113" cy="154.914" r="0.374874" transform="rotate(-180 34.4113 154.914)" fill="#777777" fill-opacity="0.6"/>
<circle cx="59.0929" cy="15.7013" r="0.374874" transform="rotate(-180 59.0929 15.7013)" fill="#777777" fill-opacity="0.16"/>
<path d="M211.786 35.0391L211.137 33.914L212.436 33.914L211.786 35.0391Z" fill="#777777" fill-opacity="0.6"/>
<circle cx="80.4113" cy="68.9142" r="0.374874" transform="rotate(-180 80.4113 68.9142)" fill="#777777" fill-opacity="0.16"/>
<path d="M29.7861 32.0391L29.1365 30.914L30.4356 30.914L29.7861 32.0391Z" fill="#777777" fill-opacity="0.16"/>
<path d="M179.786 41.0391L179.627 40.4481L179.036 40.289L179.627 40.1299L179.786 39.5389L179.945 40.1299L180.536 40.289L179.945 40.4481L179.786 41.0391Z" fill="#777777" fill-opacity="0.6"/>
<path d="M122.987 72.9668L122.828 72.3759L122.237 72.2167L122.828 72.0576L122.987 71.4667L123.146 72.0576L123.737 72.2167L123.146 72.3759L122.987 72.9668Z" fill="#777777" fill-opacity="0.16"/>
<path d="M158.786 18.0391L158.627 17.4481L158.036 17.289L158.627 17.1299L158.786 16.5389L158.945 17.1299L159.536 17.289L158.945 17.4481L158.786 18.0391Z" fill="#777777" fill-opacity="0.8"/>
<path d="M148.409 126.615L148.25 126.024L147.659 125.865L148.25 125.706L148.409 125.115L148.568 125.706L149.159 125.865L148.568 126.024L148.409 126.615Z" fill="#777777" fill-opacity="0.5"/>
<path d="M84.3603 52.8789L84.2012 52.288L83.6102 52.1288L84.2012 51.9697L84.3603 51.3788L84.5194 51.9697L85.1104 52.1288L84.5194 52.288L84.3603 52.8789Z" fill="#777777" fill-opacity="0.6"/>
<circle cx="211.411" cy="61.9142" r="0.374874" transform="rotate(-180 211.411 61.9142)" fill="#777777" fill-opacity="0.6"/>
<path d="M202.08 135.516C197.228 103.3 178.619 31.2951 143 1" stroke="url(#paint1_linear_448_3591)" stroke-opacity="0.27" stroke-width="2"/>
<path d="M76.8567 1C83.0861 25.1973 82.036 89.9451 28 155.358" stroke="url(#paint2_linear_448_3591)" stroke-opacity="0.5" stroke-width="2"/>
<defs>
<linearGradient id="paint0_linear_448_3591" x1="111" y1="1" x2="111" y2="296" gradientUnits="userSpaceOnUse">
<stop stop-color="#777777"/>
<stop offset="0.8" stop-color="#F5F5F5"/>
</linearGradient>
<linearGradient id="paint1_linear_448_3591" x1="172.54" y1="0.999999" x2="196.497" y2="105.387" gradientUnits="userSpaceOnUse">
<stop stop-color="#777777"/>
<stop offset="1" stop-color="white" stop-opacity="0"/>
</linearGradient>
<linearGradient id="paint2_linear_448_3591" x1="76.6183" y1="-1.61623" x2="60.7029" y2="143.803" gradientUnits="userSpaceOnUse">
<stop stop-color="#777777"/>
<stop offset="1" stop-color="white" stop-opacity="0"/>
</linearGradient>
</defs>
</svg>
