<svg width="222" height="297" viewBox="0 0 222 297" fill="none" xmlns="http://www.w3.org/2000/svg">
<path fill-rule="evenodd" clip-rule="evenodd" d="M201 1C212.046 1 221 9.9543 221 21V276C221 287.046 212.046 296 201 296H21C9.95431 296 1 287.046 1 276V21C1 9.95431 9.9543 1 21 1H201Z" fill="#FFF4F7" stroke="url(#paint0_linear_448_3593)" stroke-width="2"/>
<circle cx="131.787" cy="44.289" r="0.750058" transform="rotate(-180 131.787 44.289)" fill="#FF3052" fill-opacity="0.5"/>
<circle cx="155.787" cy="38.289" r="0.750058" transform="rotate(-180 155.787 38.289)" fill="#FF3052" fill-opacity="0.6"/>
<circle cx="49.8163" cy="42.4804" r="0.750058" transform="rotate(-180 49.8163 42.4804)" fill="#FF3052" fill-opacity="0.6"/>
<circle cx="37.6641" cy="116.008" r="1.12493" transform="rotate(-180 37.6641 116.008)" fill="#FF3052" fill-opacity="0.6"/>
<circle cx="87.3516" cy="129.688" r="1.12493" transform="rotate(-180 87.3516 129.688)" fill="#FF3052" fill-opacity="0.6"/>
<circle cx="106.162" cy="40.6641" r="1.12493" transform="rotate(-180 106.162 40.6641)" fill="#FF3052" fill-opacity="0.5"/>
<circle cx="56.1622" cy="141.664" r="1.12493" transform="rotate(-180 56.1622 141.664)" fill="#FF3052" fill-opacity="0.16"/>
<circle cx="81.4571" cy="120.234" r="1.12493" transform="rotate(-180 81.4571 120.234)" fill="#FF3052" fill-opacity="0.5"/>
<circle cx="56.0235" cy="67.879" r="1.12493" transform="rotate(-180 56.0235 67.879)" fill="#FF3052" fill-opacity="0.16"/>
<circle cx="34.6407" cy="52.9805" r="1.12493" transform="rotate(-180 34.6407 52.9805)" fill="#FF3052" fill-opacity="0.6"/>
<circle cx="79.1622" cy="19.6641" r="1.12493" transform="rotate(-180 79.1622 19.6641)" fill="#FF3052" fill-opacity="0.7"/>
<circle cx="161.328" cy="141.891" r="0.374874" transform="rotate(-180 161.328 141.891)" fill="#FF3052" fill-opacity="0.6"/>
<circle cx="109.795" cy="79.129" r="0.374874" transform="rotate(-180 109.795 79.129)" fill="#FF3052" fill-opacity="0.6"/>
<circle cx="84.8673" cy="134.996" r="0.374874" transform="rotate(-180 84.8673 134.996)" fill="#FF3052" fill-opacity="0.16"/>
<circle cx="73.6486" cy="32.7033" r="0.374874" transform="rotate(-180 73.6486 32.7033)" fill="#FF3052" fill-opacity="0.5"/>
<circle cx="84.4513" cy="96.2618" r="0.374874" transform="rotate(-180 84.4513 96.2618)" fill="#FF3052" fill-opacity="0.16"/>
<circle cx="151.731" cy="169.87" r="0.374874" transform="rotate(-180 151.731 169.87)" fill="#FF3052" fill-opacity="0.6"/>
<circle cx="148.264" cy="70.1564" r="0.374874" transform="rotate(-180 148.264 70.1564)" fill="#FF3052" fill-opacity="0.7"/>
<circle cx="39.4122" cy="87.9142" r="0.374874" transform="rotate(-180 39.4122 87.9142)" fill="#FF3052" fill-opacity="0.16"/>
<circle cx="61.2111" cy="110.18" r="0.374874" transform="rotate(-180 61.2111 110.18)" fill="#FF3052" fill-opacity="0.6"/>
<circle cx="147.432" cy="114.195" r="0.374874" transform="rotate(-180 147.432 114.195)" fill="#FF3052" fill-opacity="0.5"/>
<circle cx="67.4122" cy="42.9142" r="0.374874" transform="rotate(-180 67.4122 42.9142)" fill="#FF3052" fill-opacity="0.6"/>
<circle cx="147.408" cy="62.8048" r="0.374874" transform="rotate(-180 147.408 62.8048)" fill="#FF3052" fill-opacity="0.16"/>
<circle cx="158.75" cy="67.3243" r="0.374874" transform="rotate(-180 158.75 67.3243)" fill="#FF3052" fill-opacity="0.6"/>
<circle cx="37.4122" cy="75.9142" r="0.374874" transform="rotate(-180 37.4122 75.9142)" fill="#FF3052" fill-opacity="0.5"/>
<circle cx="130.5" cy="39.1681" r="0.374874" transform="rotate(-180 130.5 39.1681)" fill="#FF3052" fill-opacity="0.16"/>
<circle cx="34.4122" cy="154.913" r="0.374874" transform="rotate(-180 34.4122 154.913)" fill="#FF3052" fill-opacity="0.6"/>
<circle cx="59.0939" cy="15.6993" r="0.374874" transform="rotate(-180 59.0939 15.6993)" fill="#FF3052" fill-opacity="0.16"/>
<circle cx="80.4122" cy="68.9142" r="0.374874" transform="rotate(-180 80.4122 68.9142)" fill="#FF3052" fill-opacity="0.16"/>
<path d="M29.7871 32.0391L29.1375 30.914L30.4366 30.914L29.7871 32.0391Z" fill="#FF3052" fill-opacity="0.16"/>
<path d="M122.988 72.9648L122.829 72.3739L122.238 72.2148L122.829 72.0557L122.988 71.4647L123.147 72.0557L123.738 72.2148L123.147 72.3739L122.988 72.9648Z" fill="#FF3052" fill-opacity="0.16"/>
<path d="M158.787 18.0391L158.628 17.4481L158.037 17.289L158.628 17.1299L158.787 16.5389L158.946 17.1299L159.537 17.289L158.946 17.4481L158.787 18.0391Z" fill="#FF3052" fill-opacity="0.8"/>
<path d="M148.41 126.613L148.251 126.022L147.66 125.863L148.251 125.704L148.41 125.113L148.569 125.704L149.16 125.863L148.569 126.022L148.41 126.613Z" fill="#FF3052" fill-opacity="0.5"/>
<path d="M84.3613 52.8789L84.2022 52.288L83.6112 52.1288L84.2022 51.9697L84.3613 51.3788L84.5204 51.9697L85.1113 52.1288L84.5204 52.288L84.3613 52.8789Z" fill="#FF3052" fill-opacity="0.6"/>
<path d="M202.08 135.516C197.228 103.3 178.619 31.2951 143 1" stroke="url(#paint1_linear_448_3593)" stroke-opacity="0.27" stroke-width="2"/>
<path d="M76.8567 1C83.0861 25.1973 82.036 89.9451 28 155.358" stroke="url(#paint2_linear_448_3593)" stroke-opacity="0.5" stroke-width="2"/>
<defs>
<linearGradient id="paint0_linear_448_3593" x1="111" y1="1" x2="111" y2="296" gradientUnits="userSpaceOnUse">
<stop stop-color="#FF3052"/>
<stop offset="0.8" stop-color="#FFF4F7"/>
</linearGradient>
<linearGradient id="paint1_linear_448_3593" x1="172.54" y1="0.999999" x2="196.497" y2="105.387" gradientUnits="userSpaceOnUse">
<stop stop-color="#FF3052"/>
<stop offset="1" stop-color="white" stop-opacity="0"/>
</linearGradient>
<linearGradient id="paint2_linear_448_3593" x1="76.6183" y1="-1.61623" x2="60.7029" y2="143.803" gradientUnits="userSpaceOnUse">
<stop stop-color="#FF3052"/>
<stop offset="1" stop-color="white" stop-opacity="0"/>
</linearGradient>
</defs>
</svg>
