<svg width="30" height="17" viewBox="0 0 30 17" fill="none" xmlns="http://www.w3.org/2000/svg">
<rect width="30" height="17" rx="2" fill="#666EFE"/>
<path d="M6.74463 4.17969V12H5.40723V4.17969H6.74463ZM9.19922 4.17969V5.25391H2.97412V4.17969H9.19922ZM10.7783 4.17969H11.9814L14.2427 10.2114L16.4985 4.17969H17.7017L14.7153 12H13.7593L10.7783 4.17969ZM10.2305 4.17969H11.3745L11.5732 9.40039V12H10.2305V4.17969ZM17.1055 4.17969H18.2549V12H16.9067V9.40039L17.1055 4.17969ZM26.9507 10.9204L26.8486 13.8853H25.6079V12H24.9097V10.9204H26.9507ZM19.8232 12V4.17969H21.1768V10.9312H24.6411V4.17969H25.9946V12H19.8232Z" fill="#F5F7F9"/>
</svg>
