<svg width="26" height="25" viewBox="0 0 26 25" fill="none" xmlns="http://www.w3.org/2000/svg">
<path d="M22.1231 3.2453L22.6035 2.36823L21.7968 1.87725L21.2978 2.67608L22.1231 3.2453ZM23.5772 4.13032L24.4575 4.59921L24.8643 3.74422L24.0576 3.25325L23.5772 4.13032ZM14.3822 11.4784L13.528 10.9585L13.0476 11.8356L13.9019 12.3555L14.3822 11.4784ZM20.6834 15.3135L20.203 16.1906L21.0572 16.7105L21.5376 15.8334L20.6834 15.3135ZM6.71664 18.3949L6.25557 17.4844L4.67651 18.3226L6.23629 19.2719L6.71664 18.3949ZM16.4677 22.1553L15.6636 21.5534L16.4677 22.1553ZM22.1231 3.2453L21.6428 4.12238L23.0969 5.0074L23.5772 4.13032L24.0576 3.25325L22.6035 2.36823L22.1231 3.2453ZM16.8811 11.6368L17.7064 12.206L22.9485 3.81453L22.1231 3.2453L21.2978 2.67608L16.0557 11.0675L16.8811 11.6368ZM14.3822 11.4784L13.9019 12.3555L20.203 16.1906L20.6834 15.3135L21.1637 14.4365L14.8626 10.6014L14.3822 11.4784ZM19.8438 16.8464L18.9896 16.3265C17.7017 18.6782 16.8345 19.8335 15.6636 21.5534L16.4677 22.1553L17.2717 22.7571C18.4155 21.077 19.352 19.8242 20.698 17.3664L19.8438 16.8464ZM20.2477 13.6858L20.7281 12.8087L19.7849 12.2347L19.3046 13.1118L18.8242 13.9889L19.7674 14.5629L20.2477 13.6858ZM19.3046 13.1118L19.7849 12.2347L16.4176 10.1852L15.9372 11.0623L15.4568 11.9394L18.8242 13.9889L19.3046 13.1118ZM23.5772 4.13032L22.6969 3.66143L18.4243 12.6429L19.3046 13.1118L20.1849 13.5807L24.4575 4.59921L23.5772 4.13032ZM13.8476 22.735L14.3279 21.8579L7.19699 17.5178L6.71664 18.3949L6.23629 19.2719L13.3672 23.6121L13.8476 22.735ZM6.71664 18.3949L7.17771 19.3053C10.1797 17.7118 12.5442 16.9141 14.3969 13.5313L13.5427 13.0113L12.6885 12.4914C11.183 15.2402 9.48092 15.7724 6.25557 17.4844L6.71664 18.3949ZM16.4677 22.1553L15.6636 21.5534C15.3545 22.0075 14.7719 22.1281 14.3279 21.8579L13.8476 22.735L13.3672 23.6121C14.7183 24.4344 16.4035 24.0325 17.2717 22.7571L16.4677 22.1553ZM20.6834 15.3135L21.5376 15.8334C22.112 14.7847 21.7496 13.4304 20.7281 12.8087L20.2477 13.6858L19.7674 14.5629C19.8453 14.6103 19.8729 14.7136 19.8291 14.7936L20.6834 15.3135ZM14.3822 11.4784L15.2364 11.9983C15.2802 11.9183 15.3789 11.8919 15.4568 11.9394L15.9372 11.0623L16.4176 10.1852C15.3961 9.56351 14.1024 9.90974 13.528 10.9585L14.3822 11.4784Z" fill="#2D4059"/>
<ellipse cx="6.71629" cy="12.9772" rx="2.23875" ry="2.36006" fill="#2D4059"/>
<ellipse cx="1.67906" cy="6.4888" rx="1.67906" ry="1.77005" fill="#2D4059"/>
<ellipse cx="6.71605" cy="7.07847" rx="1.11938" ry="1.18003" fill="#2D4059"/>
<path d="M8.5 19.303C9.87937 19.7366 10.9744 19.392 12 18.7812C11.7065 19.4925 11 19.8247 9.5 20.3465" stroke="#2D4059" stroke-width="0.5"/>
<path d="M11 20.8733C12.3794 21.3069 12.9744 20.9623 14 20.3516C13.5 21.395 13 21.3951 11.5 21.9168" stroke="#2D4059" stroke-width="0.5"/>
</svg>
