<svg width="24" height="24" viewBox="0 0 24 24" fill="none" xmlns="http://www.w3.org/2000/svg">
<path fill-rule="evenodd" clip-rule="evenodd" d="M10.415 0.506662C11.367 -0.168887 12.633 -0.168888 13.585 0.506662L22.8154 7.05744C23.5576 7.58423 23.9999 8.44649 24 9.36701V21.1834C23.9999 22.739 22.7598 23.9998 21.2305 23.9998H17.5381C16.0089 23.9996 14.7696 22.7389 14.7695 21.1834V19.1746C14.7695 18.6561 14.3555 18.2352 13.8457 18.2352H10.1543C9.6445 18.2352 9.23047 18.6561 9.23047 19.1746V21.1834C9.23038 22.7389 7.99109 23.9996 6.46191 23.9998H2.76953C1.24018 23.9998 9.05129e-05 22.739 0 21.1834V9.36701C6.67466e-05 8.44649 0.442433 7.58423 1.18457 7.05744L10.415 0.506662ZM12.5283 2.0467C12.211 1.82155 11.789 1.82154 11.4717 2.0467L2.24121 8.59651C1.99382 8.77207 1.84577 9.06019 1.8457 9.36701V21.1834C1.84579 21.7019 2.25979 22.1219 2.76953 22.1219H6.46191L6.55664 22.118C7.02174 22.0696 7.38468 21.6693 7.38477 21.1834V19.1746C7.38477 17.619 8.62489 16.3572 10.1543 16.3572H13.8457C15.3751 16.3572 16.6152 17.619 16.6152 19.1746V21.1834C16.6153 21.7018 17.0285 22.1217 17.5381 22.1219H21.2305C21.7402 22.1219 22.1542 21.7019 22.1543 21.1834V9.36701C22.1542 9.06019 22.0062 8.77207 21.7588 8.59651L12.5283 2.0467Z" fill="white"/>
</svg>
