<svg width="26" height="26" viewBox="0 0 26 26" fill="none" xmlns="http://www.w3.org/2000/svg">
<path d="M24.5 0C25.3284 0 26 0.671574 26 1.5V24.5C26 25.3284 25.3284 26 24.5 26H1.5C0.671573 26 0 25.3284 0 24.5V1.5C0 0.671572 0.671574 0 1.5 0H24.5ZM2 24H24V2H2V24ZM10 19C10.5523 19 11 19.4477 11 20C11 20.5523 10.5523 21 10 21H5C4.44772 21 4 20.5523 4 20C4 19.4477 4.44772 19 5 19H10ZM21 19C21.5523 19 22 19.4477 22 20C22 20.5523 21.5523 21 21 21H16C15.4477 21 15 20.5523 15 20C15 19.4477 15.4477 19 16 19H21ZM10 13.5C10.5523 13.5 11 13.9477 11 14.5C11 15.0523 10.5523 15.5 10 15.5H5C4.44772 15.5 4 15.0523 4 14.5C4 13.9477 4.44772 13.5 5 13.5H10ZM21 13.5C21.5523 13.5 22 13.9477 22 14.5C22 15.0523 21.5523 15.5 21 15.5H16C15.4477 15.5 15 15.0523 15 14.5C15 13.9477 15.4477 13.5 16 13.5H21ZM17 4.5C17.8284 4.5 18.5 5.17157 18.5 6V9.875C18.5 10.7034 17.8284 11.375 17 11.375H9C8.17157 11.375 7.5 10.7034 7.5 9.875V6C7.5 5.17157 8.17157 4.5 9 4.5H17ZM9.5 9.375H16.5V6.5H9.5V9.375Z" fill="white"/>
</svg>
