<svg width="24" height="26" viewBox="0 0 24 26" fill="none" xmlns="http://www.w3.org/2000/svg">
<path d="M23 0C23.5523 0 24 0.447715 24 1V25C24 25.5523 23.5523 26 23 26H4.14258C3.05866 25.9999 2.0105 25.5892 1.23047 24.8447C0.448761 24.0986 0 23.0763 0 22V4C0 2.92373 0.448761 1.90145 1.23047 1.15527C2.0105 0.41082 3.05866 7.04284e-05 4.14258 0H23ZM4.14258 20C3.55994 20.0001 3.00991 20.2213 2.61133 20.6016C2.21424 20.9806 2 21.485 2 22C2 22.515 2.21424 23.0194 2.61133 23.3984C3.00991 23.7787 3.55994 23.9999 4.14258 24H22V20H4.14258ZM4.14258 2C3.55994 2.00007 3.00991 2.22131 2.61133 2.60156C2.21424 2.98061 2 3.48497 2 4V18.5771C2.64373 18.2015 3.38429 18 4.14258 18H22V2H4.14258ZM16.7139 6C17.2661 6.00008 17.7139 6.44776 17.7139 7C17.7139 7.55224 17.2661 7.99992 16.7139 8H7.28516C6.73287 8 6.28516 7.55228 6.28516 7C6.28516 6.44772 6.73287 6 7.28516 6H16.7139Z" fill="white"/>
</svg>
