<svg width="26" height="26" viewBox="0 0 26 26" fill="none" xmlns="http://www.w3.org/2000/svg">
<path d="M4 8C2.89543 8 2 8.89543 2 10V24H18V8H4ZM14.5 19C15.0523 19 15.5 19.4477 15.5 20C15.4999 20.5522 15.0522 21 14.5 21H5.5C4.9478 21 4.50014 20.5522 4.5 20C4.5 19.4477 4.94772 19 5.5 19H14.5ZM14.5 15C15.0523 15 15.5 15.4477 15.5 16C15.5 16.5523 15.0523 17 14.5 17H5.5C4.94772 17 4.5 16.5523 4.5 16C4.5 15.4477 4.94772 15 5.5 15H14.5ZM14.5 11C15.0523 11 15.5 11.4477 15.5 12C15.4999 12.5522 15.0522 13 14.5 13H5.5C4.9478 13 4.50014 12.5522 4.5 12C4.5 11.4477 4.94772 11 5.5 11H14.5ZM20 18H24V2H10C8.89543 2 8 2.89543 8 4V6H18C19.1046 6 20 6.89543 20 8V18ZM26 18C26 19.1046 25.1046 20 24 20H20V24C20 25.1046 19.1046 26 18 26H2C0.89543 26 0 25.1046 0 24V10C0 7.79086 1.79086 6 4 6H6V4C6 1.79086 7.79086 0 10 0H24C25.1046 0 26 0.89543 26 2V18Z" fill="white"/>
</svg>
