<svg width="24" height="26" viewBox="0 0 24 26" fill="none" xmlns="http://www.w3.org/2000/svg">
<path d="M23 10C23.5523 10 24 10.4477 24 11V24C24 25.1046 23.1046 26 22 26H2C0.895431 26 0 25.1046 0 24V18C0 17.4477 0.447715 17 1 17C1.55228 17 2 17.4477 2 18V24H22V11C22 10.4477 22.4477 10 23 10ZM12 9C12.1104 9 12.2201 9.0029 12.3291 9.00879C12.3536 9.01014 12.3779 9.013 12.4023 9.01465C12.4977 9.02096 12.5924 9.02932 12.6865 9.04004C12.7159 9.04342 12.7451 9.04794 12.7744 9.05176C12.8735 9.06453 12.9718 9.07913 13.0693 9.09668C13.0876 9.09998 13.1058 9.10297 13.124 9.10645C13.2705 9.13421 13.4151 9.16687 13.5576 9.20508L13.9648 9.30859L13.959 9.32812C16.3106 10.1402 18 12.3724 18 15C18 16.6546 17.3293 18.1519 16.2461 19.2373L16.2607 19.2539L15.8799 19.5771C15.8677 19.5874 15.855 19.5972 15.8428 19.6074C15.8261 19.6214 15.8088 19.6347 15.792 19.6484C15.7303 19.6988 15.668 19.7482 15.6045 19.7959C15.5973 19.8013 15.5903 19.8071 15.583 19.8125C15.5232 19.857 15.4626 19.9002 15.4014 19.9424C15.3637 19.9684 15.3254 19.9934 15.2871 20.0186C15.2697 20.0299 15.2519 20.0406 15.2344 20.0518C15.1603 20.0993 15.0851 20.1451 15.0088 20.1895C14.9876 20.2017 14.9667 20.2145 14.9453 20.2266C14.9395 20.2299 14.9336 20.2331 14.9277 20.2363C14.8829 20.2614 14.8375 20.2856 14.792 20.3096C14.7796 20.3161 14.7673 20.3227 14.7549 20.3291C14.3147 20.5571 13.8431 20.7319 13.3477 20.8457C13.3405 20.8474 13.3333 20.849 13.3262 20.8506C13.2666 20.864 13.2068 20.877 13.1465 20.8887C13.1445 20.8891 13.1426 20.8902 13.1406 20.8906H13.1377C13.1354 20.8911 13.1331 20.8912 13.1309 20.8916C13.0955 20.8984 13.0599 20.904 13.0244 20.9102C12.9519 20.9226 12.8791 20.9345 12.8057 20.9443C12.7767 20.9483 12.7478 20.9526 12.7188 20.9561C12.7067 20.9575 12.6947 20.9596 12.6826 20.9609C12.6716 20.9622 12.6604 20.9627 12.6494 20.9639C12.6192 20.9671 12.5889 20.9699 12.5586 20.9727C12.5081 20.9774 12.4577 20.9819 12.4072 20.9854C12.3884 20.9866 12.3695 20.9872 12.3506 20.9883C12.3249 20.9898 12.2992 20.991 12.2734 20.9922C12.1865 20.9962 12.0996 20.9988 12.0127 20.999C12.0085 20.999 12.0042 21 12 21C11.9984 21 11.9967 20.999 11.9951 20.999C11.9909 20.999 11.9867 20.999 11.9824 20.999C11.9707 20.999 11.959 20.9981 11.9473 20.998C11.8821 20.9975 11.817 20.9958 11.752 20.9932C11.7105 20.9915 11.6692 20.9898 11.6279 20.9873C11.6214 20.9869 11.6149 20.9868 11.6084 20.9863C11.5458 20.9822 11.4833 20.9767 11.4209 20.9707C11.4056 20.9692 11.3903 20.9684 11.375 20.9668C11.3287 20.962 11.2825 20.9561 11.2363 20.9502C11.2337 20.9499 11.2311 20.9496 11.2285 20.9492C11.1904 20.9443 11.1523 20.9393 11.1143 20.9336C11.073 20.9275 11.0322 20.92 10.9912 20.9131C10.959 20.9076 10.9267 20.9025 10.8945 20.8965C10.8857 20.8948 10.8769 20.8933 10.8682 20.8916C10.86 20.89 10.8519 20.8883 10.8438 20.8867C10.8049 20.8791 10.7661 20.8716 10.7275 20.8633C10.7034 20.858 10.6794 20.8522 10.6553 20.8467C10.5374 20.8197 10.4208 20.7897 10.3057 20.7559C10.2949 20.7527 10.2842 20.7493 10.2734 20.7461C10.2147 20.7285 10.1566 20.7098 10.0986 20.6904C10.0814 20.6847 10.0641 20.6788 10.0469 20.6729C9.78411 20.5824 9.52998 20.4741 9.28516 20.3496C9.27555 20.3447 9.26544 20.3409 9.25586 20.3359C9.24308 20.3294 9.2305 20.3221 9.21777 20.3154C9.17309 20.292 9.12897 20.2677 9.08496 20.2432C9.05985 20.2292 9.03465 20.2155 9.00977 20.2012C8.93284 20.1569 8.85695 20.1111 8.78223 20.0635C8.77605 20.0596 8.76983 20.0557 8.76367 20.0518C8.7474 20.0413 8.73102 20.0311 8.71484 20.0205C8.69988 20.0107 8.68479 20.0011 8.66992 19.9912C8.63936 19.9708 8.60927 19.9497 8.5791 19.9287C8.53595 19.8988 8.49348 19.868 8.45117 19.8369C8.42529 19.8179 8.39961 19.7987 8.37402 19.7793C8.29109 19.7164 8.20934 19.652 8.12988 19.585C8.11701 19.5741 8.10458 19.5627 8.0918 19.5518C7.9166 19.4013 7.75045 19.2409 7.59375 19.0713C7.58394 19.0607 7.57321 19.0507 7.56348 19.04C7.55773 19.0337 7.5526 19.0268 7.54688 19.0205C7.47293 18.9386 7.40143 18.8545 7.33203 18.7686C7.31909 18.7525 7.30573 18.7369 7.29297 18.7207C7.26346 18.6834 7.23469 18.6455 7.20605 18.6074C7.18811 18.5836 7.17092 18.5592 7.15332 18.5352C7.13479 18.5098 7.1158 18.4847 7.09766 18.459C7.08537 18.4416 7.07362 18.4238 7.06152 18.4062C7.03981 18.3748 7.01819 18.3434 6.99707 18.3115C6.96848 18.2683 6.94059 18.2247 6.91309 18.1807C6.82898 18.0464 6.75026 17.9087 6.67676 17.7676C6.65955 17.7345 6.64254 17.7013 6.62598 17.668C6.60407 17.6239 6.58237 17.5798 6.56152 17.5352C6.55112 17.5128 6.54137 17.4902 6.53125 17.4678C6.52358 17.4508 6.51532 17.4341 6.50781 17.417C6.36161 17.0853 6.24477 16.7379 6.16016 16.3779C6.15794 16.3685 6.15549 16.359 6.15332 16.3496C6.15033 16.3367 6.14841 16.3235 6.14551 16.3105C6.14099 16.2904 6.13614 16.2702 6.13184 16.25C6.12262 16.2065 6.11374 16.163 6.10547 16.1191C6.09733 16.0762 6.08923 16.0333 6.08203 15.9902C6.08024 15.9795 6.07888 15.9687 6.07715 15.958C6.0723 15.9278 6.06787 15.8975 6.06348 15.8672C6.03788 15.6918 6.01975 15.5153 6.00977 15.3379C6.00856 15.3161 6.00781 15.2943 6.00684 15.2725C5.99825 15.0832 5.99741 14.8933 6.00684 14.7031C6.00779 14.6836 6.0096 14.6641 6.01074 14.6445C6.01347 14.5986 6.01672 14.5527 6.02051 14.5068L6.06152 14.0088H6.08203C6.18519 13.3883 6.38403 12.8004 6.66211 12.2598C6.66683 12.2506 6.67199 12.2416 6.67676 12.2324C6.79102 12.0131 6.91712 11.801 7.05664 11.5986C7.06586 11.5852 7.07661 11.5729 7.08594 11.5596C7.13961 11.4831 7.19486 11.4078 7.25195 11.334C7.27661 11.302 7.30086 11.2698 7.32617 11.2383C7.38157 11.1695 7.43875 11.1023 7.49707 11.0361C7.51444 11.0164 7.53119 10.9961 7.54883 10.9766C7.62036 10.8975 7.69393 10.8203 7.76953 10.7451C7.78127 10.7334 7.79284 10.7215 7.80469 10.71C7.8266 10.6885 7.84985 10.6685 7.87207 10.6475C7.93007 10.5924 7.98866 10.538 8.04883 10.4854C8.07281 10.4644 8.0968 10.4434 8.12109 10.4229C8.19331 10.3616 8.26768 10.303 8.34277 10.2451C8.36203 10.2303 8.37998 10.2138 8.39941 10.1992C8.49537 10.1271 8.59404 10.0585 8.69434 9.99219C8.70044 9.98816 8.70677 9.98448 8.71289 9.98047C8.80956 9.91704 8.90835 9.85672 9.00879 9.79883C9.02055 9.79207 9.03214 9.785 9.04395 9.77832C9.68484 9.41472 10.3991 9.16618 11.1592 9.05957C11.193 9.05479 11.2269 9.05107 11.2607 9.04688C11.3417 9.03693 11.423 9.02818 11.5049 9.02148C11.5452 9.01815 11.5856 9.01521 11.626 9.0127C11.7115 9.00744 11.7974 9.0036 11.8838 9.00195C11.9095 9.00146 11.9352 9.00016 11.9609 9H12ZM7.00293 15.0889C7.01703 15.8819 7.21875 16.6618 7.5957 17.3643C7.62192 17.4131 7.64991 17.4609 7.67773 17.5088C8.14426 18.3124 8.82477 18.9692 9.64453 19.4072C9.68602 19.4294 9.72741 19.4517 9.76953 19.4727C10.6083 19.8908 11.5469 20.0635 12.4795 19.9736C12.5195 19.9698 12.5597 19.9677 12.5996 19.9629C13.4041 19.8656 14.1683 19.5721 14.832 19.1152L11.751 15.4805L7.00293 15.0889ZM12.5479 14.8721L15.0273 17.7988L15.5967 18.4707C16.4647 17.5713 17 16.3487 17 15C17 12.8399 15.6302 10.9998 13.7119 10.3008L12.5479 14.8721ZM12.7412 10.0566C12.0629 9.95494 11.369 9.99207 10.7031 10.1709C9.90029 10.3866 9.16441 10.7999 8.56152 11.3711C8.53194 11.3991 8.50252 11.4273 8.47363 11.4561C7.87638 12.0503 7.4381 12.7857 7.20117 13.5947C7.1531 13.7589 7.11486 13.9254 7.08398 14.0928L11.6191 14.4668L12.7412 10.0566ZM22 0C23.1046 0 24 0.895431 24 2V4C24 4.55228 23.5523 5 23 5C22.4477 5 22 4.55228 22 4V2H17.4678C17.2217 3.97308 15.5398 5.5 13.5 5.5H10.5C8.46025 5.5 6.77835 3.97308 6.53223 2H2V11C2 11.5523 1.55228 12 1 12C0.447715 12 0 11.5523 0 11V2C1.28853e-07 0.895431 0.89543 0 2 0H22ZM8.56543 2C8.78765 2.86232 9.56829 3.5 10.5 3.5H13.5C14.4317 3.5 15.2123 2.86232 15.4346 2H8.56543Z" fill="white"/>
</svg>
