<svg width="26" height="26" viewBox="0 0 26 26" fill="none" xmlns="http://www.w3.org/2000/svg">
<path d="M2 12.8398V24H5.14258V12.8398H2ZM11.1318 7.41895V24H14.4004V7.41895H11.1318ZM20.7314 2V24H24V2H20.7314ZM7.14258 24C7.14258 25.1046 6.24715 26 5.14258 26H2C0.895432 26 1.03081e-06 25.1046 0 24V12.8398C6.54536e-05 11.7353 0.895473 10.8398 2 10.8398H5.14258C6.24711 10.8398 7.14251 11.7353 7.14258 12.8398V24ZM16.4004 24C16.4004 25.1044 15.5048 25.9998 14.4004 26H11.1318C10.0273 26 9.13184 25.1046 9.13184 24V7.41895C9.13206 6.31457 10.0274 5.41895 11.1318 5.41895H14.4004C15.5046 5.41916 16.4002 6.31469 16.4004 7.41895V24ZM26 24C26 25.1046 25.1046 26 24 26H20.7314C19.627 25.9999 18.7314 25.1045 18.7314 24V2C18.7314 0.895518 19.627 0.000140177 20.7314 0H24C25.1046 0 26 0.89543 26 2V24Z" fill="white"/>
</svg>
