<svg width="26" height="26" viewBox="0 0 26 26" fill="none" xmlns="http://www.w3.org/2000/svg">
<path d="M14.4782 0.800082C15.0581 0.0270225 16.1089 -0.220861 16.9733 0.211215L19.4353 1.44266C20.256 1.85304 20.6918 2.76954 20.4929 3.66532L20.2224 4.87821L21.1081 5.76395L21.9665 5.55008C22.9187 5.31208 23.903 5.80137 24.2898 6.7034L25.2575 8.96024C25.6747 9.93355 25.2603 11.0638 24.3132 11.5374L23.4773 11.9554V13.0696L24.6814 13.9729C25.419 14.5264 25.6822 15.5129 25.3191 16.3606L24.2898 18.762C23.9031 19.6642 22.9188 20.1533 21.9665 19.9153L21.1081 19.7005L20.2351 20.5745L20.4724 21.5227C20.6897 22.3919 20.3029 23.2998 19.5251 23.7444L17.0417 25.1634C16.166 25.6635 15.055 25.433 14.4499 24.6263L13.6052 23.5003H11.8142L10.9694 24.6263C10.3644 25.433 9.25333 25.6635 8.37765 25.1634L5.863 23.7259C5.11571 23.2987 4.72446 22.441 4.89327 21.597L5.20479 20.0374L4.30929 19.1419L3.45284 19.3567C2.50055 19.5948 1.51631 19.1066 1.1296 18.2044L0.161826 15.9466C-0.25492 14.9734 0.159186 13.8439 1.10616 13.3704L1.9421 12.9514V11.9554L1.113 11.5413C0.16007 11.0647 -0.251643 9.92423 0.176474 8.94852L1.16769 6.68875C1.56079 5.79323 2.54407 5.31306 3.4919 5.55399L4.31124 5.76297L5.19601 4.87821L4.92647 3.66532C4.72758 2.76955 5.16336 1.85303 5.98409 1.44266L8.44601 0.211215C9.31042 -0.220966 10.3611 0.0270536 10.9411 0.800082L11.8142 1.96512H13.6052L14.4782 0.800082ZM14.6052 3.96512H10.8142L9.34054 2.00028L6.87862 3.23172L7.38644 5.51688L6.99776 5.90457L4.92159 7.98172L2.99874 7.49246L2.00753 9.75223L3.9421 10.719V14.1878L2.00069 15.1585L2.96749 17.4163L4.37374 17.0647L4.92354 16.928L7.37667 19.3811L7.2712 19.9056L6.85519 21.9895L9.36983 23.4261L10.8142 21.5003H14.6052L16.0495 23.4261L18.5329 22.0081L18.1579 20.51L18.0212 19.9612L20.4958 17.4856L22.4519 17.9749L23.4812 15.5725L21.8767 14.3704L21.4773 14.0696V10.719L23.4187 9.74832L22.4519 7.49051L20.4958 7.97977L18.4216 5.90457L18.0329 5.51688L18.5407 3.23172L16.0788 2.00028L14.6052 3.96512ZM12.7097 7.49735C15.6009 7.49735 17.9448 9.84148 17.945 12.7327C17.945 15.6241 15.601 17.9681 12.7097 17.9681C9.81836 17.968 7.47433 15.624 7.47433 12.7327C7.47451 9.84152 9.81847 7.49741 12.7097 7.49735ZM12.7097 9.49735C10.923 9.49741 9.47451 10.9461 9.47433 12.7327C9.47433 14.5195 10.9229 15.968 12.7097 15.9681C14.4965 15.9681 15.945 14.5195 15.945 12.7327C15.9448 10.9461 14.4964 9.49735 12.7097 9.49735Z" fill="white"/>
</svg>
