<svg width="24" height="29" viewBox="0 0 24 29" fill="none" xmlns="http://www.w3.org/2000/svg">
<path d="M15.2061 26.1523C15.2061 27.725 13.769 29 11.9971 29L11.6689 28.9854C10.0513 28.8394 8.78906 27.6266 8.78906 26.1523H15.2061ZM10.1475 27.1523C10.4825 27.589 11.037 27.9203 11.748 27.9873L12.0078 27.999C12.8289 27.9959 13.4741 27.6394 13.8477 27.1523H10.1475ZM12.0273 0C12.8661 0 13.6554 0.398038 14.1543 1.07227L14.1787 1.10547C14.5263 1.57515 14.7139 2.14422 14.7139 2.72852V3.28125C15.9309 3.58697 17.088 4.10007 18.1309 4.80469L18.1895 4.84375L18.2412 4.89062L19.1836 5.73926C19.7766 6.27352 20.2767 6.90268 20.6641 7.60059C21.2591 8.67281 21.5713 9.87918 21.5713 11.1055V18.1289C21.5713 18.3733 21.6333 18.6144 21.752 18.8281C21.7998 18.9144 21.8564 18.9956 21.9209 19.0703L23.4121 20.7969C23.7912 21.2359 24 21.7969 24 22.377V22.3887C24 23.0662 23.7124 23.7125 23.209 24.166C22.7698 24.5615 22.1995 24.7803 21.6084 24.7803H2.3916C1.80054 24.7803 1.23022 24.5615 0.791016 24.166C0.28763 23.7125 0 23.0662 0 22.3887V22.377C2.74292e-05 21.7969 0.208829 21.2359 0.587891 20.7969L2.0791 19.0703C2.14357 18.9956 2.20017 18.9144 2.24805 18.8281C2.36667 18.6144 2.42871 18.3733 2.42871 18.1289V11.1055C2.42871 9.87918 2.74086 8.67281 3.33594 7.60059C3.72327 6.90268 4.22339 6.27352 4.81641 5.73926L5.75879 4.89062L5.81055 4.84375L5.86914 4.80469L5.99902 4.7168C7.00257 4.03871 8.1152 3.53988 9.28613 3.24121V2.7793C9.28613 1.80363 9.79739 0.898835 10.6338 0.396484L10.665 0.37793C11.0764 0.130882 11.5475 5.7056e-05 12.0273 0ZM13.4941 5.06445C12.5009 4.84082 11.4719 4.82851 10.4736 5.02832L10.2129 5.08008C9.10615 5.30167 8.05438 5.74115 7.11914 6.37305L7.04492 6.42285L6.15527 7.22559C5.72651 7.61188 5.36501 8.06668 5.08496 8.57129C4.65468 9.34658 4.42871 10.2188 4.42871 11.1055V18.1289C4.42871 18.7129 4.27951 19.2882 3.99609 19.7988C3.88174 20.0048 3.74672 20.1986 3.59277 20.377L2.10156 22.1045C2.03621 22.1803 2.00003 22.2769 2 22.377V22.3887C2 22.4996 2.04747 22.6054 2.12988 22.6797C2.20176 22.7443 2.29493 22.7803 2.3916 22.7803H21.6084C21.7051 22.7803 21.7982 22.7443 21.8701 22.6797C21.9525 22.6054 22 22.4996 22 22.3887V22.377C22 22.2769 21.9638 22.1803 21.8984 22.1045L20.4072 20.377C20.2533 20.1986 20.1183 20.0048 20.0039 19.7988C19.7205 19.2882 19.5713 18.7129 19.5713 18.1289V11.1055C19.5713 10.2188 19.3453 9.34658 18.915 8.57129C18.635 8.06668 18.2735 7.61188 17.8447 7.22559L16.9629 6.43066C15.9597 5.76236 14.8303 5.30563 13.6436 5.0918L13.5371 5.07324L13.5156 5.06934L13.4941 5.06445ZM12.0273 2C11.9104 2.00006 11.7956 2.03164 11.6953 2.0918L11.6631 2.11133C11.4289 2.25218 11.2861 2.506 11.2861 2.7793V2.91016C11.7619 2.8786 12.2389 2.88382 12.7139 2.92578V2.72852C12.7139 2.57255 12.6641 2.42029 12.5713 2.29492L12.5469 2.26172C12.4251 2.09717 12.232 2 12.0273 2Z" fill="white"/>
</svg>
