<svg width="26" height="24" viewBox="0 0 26 24" fill="none" xmlns="http://www.w3.org/2000/svg">
<path d="M1.64116 23H24.3588C24.7129 23 25 22.7129 25 22.3588C25 19.6875 23.4907 17.2453 21.1013 16.0507L20.7541 15.8771C20.2529 15.6264 19.7257 15.4314 19.182 15.2955L19.0573 15.2643C18.3551 15.0888 17.634 15 16.9102 15H9.08979C8.366 15 7.64493 15.0888 6.94275 15.2643L6.81797 15.2955C6.27429 15.4314 5.74712 15.6264 5.24587 15.8771L4.89867 16.0507C2.50931 17.2453 1 19.6875 1 22.3588C1 22.7129 1.28706 23 1.64116 23Z" stroke="white" stroke-width="2"/>
<circle cx="13" cy="6" r="5" stroke="white" stroke-width="2"/>
</svg>
