<svg width="16" height="19" viewBox="0 0 16 19" fill="none" xmlns="http://www.w3.org/2000/svg">
<path d="M8 0C4.8 0 2.1226 1.58696 2.28572 5.54166V8.3125H1.33333C0.594667 8.3125 0 8.86689 0 9.61875V17.6429C0 18.3947 0.594667 19 1.33333 19H14.6667C15.4053 19 16 18.3947 16 17.6429V9.61875C16 8.86689 15.4159 8.3125 14.6667 8.3125H13.7143V5.54166C13.7143 1.58334 11.2 0 8 0ZM8 2.375C9.6 2.375 11.4286 2.94588 11.4286 5.54166V8.3125H4.57143V5.54166C4.57143 2.97157 6.4 2.375 8 2.375Z" fill="white"/>
</svg>
