<svg width="22" height="25" viewBox="0 0 22 25" fill="none" xmlns="http://www.w3.org/2000/svg">
<path d="M2 12.969V22.9167H20V12.969H2ZM16.1113 7.40763C16.1113 4.46723 13.8228 2.08333 11 2.08333C8.17721 2.08333 5.88867 4.46723 5.88867 7.40763V10.8856H16.1113V7.40763ZM18.1113 10.8856H20C21.1046 10.8856 22 11.8184 22 12.969V22.9167C22 24.0673 21.1046 25 20 25H2C0.895431 25 0 24.0673 0 22.9167V12.969C0 11.8184 0.895429 10.8856 2 10.8856H3.88867V7.40763C3.88867 3.31663 7.07264 0 11 0C14.9274 0 18.1113 3.31663 18.1113 7.40763V10.8856Z" fill="white"/>
</svg>
