<svg width="164" height="30" viewBox="0 0 164 30" fill="none" xmlns="http://www.w3.org/2000/svg">
<path d="M32.1802 28.5164L17.3026 1.59141C16.9213 0.901376 15.9287 0.903326 15.5502 1.59485L4.69774 21.4187C4.33292 22.0852 4.81517 22.8989 5.5749 22.8989H11.6168C11.9784 22.8989 12.3119 22.7037 12.4889 22.3883L15.6201 16.8076C16.0038 16.1238 16.9895 16.1275 17.368 16.8143L24.3498 29.4827C24.5256 29.8018 24.8612 30 25.2256 30H31.3049C32.0664 30 32.5485 29.1829 32.1802 28.5164Z" fill="#E61E40"/>
<path d="M1.68748 30H21.066C21.8171 30 22.3001 29.2029 21.9524 28.5371L20.08 24.9512C19.9079 24.6215 19.5669 24.4146 19.195 24.4141L3.66327 24.3933C3.29739 24.3928 2.96046 24.5922 2.78477 24.9131L0.810321 28.5198C0.4455 29.1862 0.927746 30 1.68748 30Z" fill="#E61E40"/>
<path d="M47.5503 13.7588V16H39.0586V13.7588H47.5503ZM40.0215 13.7588V18.9634H37.3237L37.1245 13.7588H40.0215ZM49.5342 13.7588L49.2271 18.9717H46.6123V13.7588H49.5342ZM46.2803 3.91406V6.16357H40.2124V3.91406H46.2803ZM48.2393 3.91406V16H45.3423V3.91406H48.2393ZM40.0215 3.91406H42.9268L42.5698 8.86963C42.509 9.71631 42.4121 10.4523 42.2793 11.0776C42.1465 11.703 41.9888 12.2425 41.8062 12.6963C41.6235 13.1501 41.4243 13.5402 41.2085 13.8667C40.9927 14.1932 40.7658 14.4782 40.5278 14.7217C40.2954 14.9652 40.063 15.1865 39.8306 15.3857C39.5981 15.585 39.374 15.7897 39.1582 16H37.3901V13.7588H37.9712C38.1427 13.637 38.3143 13.4738 38.4858 13.269C38.6629 13.0588 38.8289 12.7738 38.9839 12.4141C39.1388 12.0544 39.2744 11.5868 39.3906 11.0112C39.5068 10.4357 39.5954 9.72184 39.6562 8.86963L40.0215 3.91406ZM56.2861 11.5425L60.6274 3.91406H63.541V16H60.6274V8.37988L56.2861 16H53.3726V3.91406H56.2861V11.5425ZM76.4688 8.71191V10.9531H70.2681V8.71191H76.4688ZM71.2393 3.91406V16H68.3257V3.91406H71.2393ZM78.4277 3.91406V16H75.5225V3.91406H78.4277ZM88.5498 6.4541L85.603 16H82.4736L86.9146 3.91406H88.8984L88.5498 6.4541ZM90.9902 16L88.0352 6.4541L87.6533 3.91406H89.6621L94.1279 16H90.9902ZM90.874 11.4927V13.7422H84.6733V11.4927H90.874ZM99.4604 3.91406H101.834L104.532 12.3228L107.23 3.91406H109.604L105.495 16H103.569L99.4604 3.91406ZM98.0161 3.91406H100.473L100.93 13.1777V16H98.0161V3.91406ZM108.591 3.91406H111.057V16H108.135V13.1777L108.591 3.91406ZM118.672 11.5425L123.013 3.91406H125.927V16H123.013V8.37988L118.672 16H115.758V3.91406H118.672V11.5425ZM133.6 3.91406V16H130.695V3.91406H133.6ZM140.573 3.91406L136.231 11.2188H133.094L132.745 8.5874H134.729L137.053 3.91406H140.573ZM137.551 16L134.721 10.7124L136.837 8.76172L140.988 16H137.551ZM149.84 6.4541L146.893 16H143.764L148.205 3.91406H150.188L149.84 6.4541ZM152.28 16L149.325 6.4541L148.943 3.91406H150.952L155.418 16H152.28ZM152.164 11.4927V13.7422H145.963V11.4927H152.164Z" fill="white"/>
<path d="M41.4707 24.0234V29H40.5308V24.7651H38.4253V29H37.4854V24.0234H41.4707ZM45.3521 27.1851H44.0703V26.4468H45.3521C45.5617 26.4468 45.7314 26.4126 45.8613 26.3442C45.9935 26.2736 46.0903 26.1779 46.1519 26.0571C46.2134 25.9341 46.2441 25.7939 46.2441 25.6367C46.2441 25.484 46.2134 25.3416 46.1519 25.2095C46.0903 25.0773 45.9935 24.9702 45.8613 24.8882C45.7314 24.8062 45.5617 24.7651 45.3521 24.7651H44.3779V29H43.438V24.0234H45.3521C45.7394 24.0234 46.0698 24.0929 46.3433 24.2319C46.619 24.3687 46.8286 24.5589 46.9722 24.8027C47.118 25.0443 47.1909 25.32 47.1909 25.6299C47.1909 25.9512 47.118 26.228 46.9722 26.4604C46.8286 26.6929 46.619 26.8717 46.3433 26.9971C46.0698 27.1224 45.7394 27.1851 45.3521 27.1851ZM52.959 26.3853V26.6416C52.959 27.0176 52.9089 27.356 52.8086 27.6567C52.7083 27.9552 52.5659 28.2093 52.3813 28.4189C52.1968 28.6286 51.9769 28.7892 51.7217 28.9009C51.4665 29.0125 51.1828 29.0684 50.8706 29.0684C50.563 29.0684 50.2804 29.0125 50.0229 28.9009C49.7677 28.7892 49.5467 28.6286 49.3599 28.4189C49.173 28.2093 49.0283 27.9552 48.9258 27.6567C48.8232 27.356 48.772 27.0176 48.772 26.6416V26.3853C48.772 26.007 48.8232 25.6686 48.9258 25.3701C49.0283 25.0716 49.1719 24.8175 49.3564 24.6079C49.541 24.396 49.7609 24.2342 50.0161 24.1226C50.2736 24.0109 50.5562 23.9551 50.8638 23.9551C51.1759 23.9551 51.4596 24.0109 51.7148 24.1226C51.9701 24.2342 52.1899 24.396 52.3745 24.6079C52.5614 24.8175 52.7049 25.0716 52.8052 25.3701C52.9077 25.6686 52.959 26.007 52.959 26.3853ZM52.0088 26.6416V26.3784C52.0088 26.1073 51.9837 25.8691 51.9336 25.6641C51.8835 25.4567 51.8094 25.2824 51.7114 25.1411C51.6134 24.9998 51.4927 24.8939 51.3491 24.8232C51.2056 24.7503 51.0438 24.7139 50.8638 24.7139C50.6815 24.7139 50.5197 24.7503 50.3784 24.8232C50.2394 24.8939 50.1209 24.9998 50.0229 25.1411C49.925 25.2824 49.8498 25.4567 49.7974 25.6641C49.7472 25.8691 49.7222 26.1073 49.7222 26.3784V26.6416C49.7222 26.9105 49.7472 27.1486 49.7974 27.356C49.8498 27.5633 49.925 27.7388 50.0229 27.8823C50.1232 28.0236 50.244 28.1307 50.3853 28.2036C50.5265 28.2765 50.6883 28.313 50.8706 28.313C51.0529 28.313 51.2147 28.2765 51.356 28.2036C51.4972 28.1307 51.6157 28.0236 51.7114 27.8823C51.8094 27.7388 51.8835 27.5633 51.9336 27.356C51.9837 27.1486 52.0088 26.9105 52.0088 26.6416ZM55.1655 24.0234H55.979L57.3394 27.7695L58.6963 24.0234H59.5132L57.6641 29H57.0112L55.1655 24.0234ZM54.7554 24.0234H55.5518L55.6953 27.4653V29H54.7554V24.0234ZM59.1235 24.0234H59.9233V29H58.9834V27.4653L59.1235 24.0234ZM62.5229 25.8862H63.7295C64.1146 25.8862 64.445 25.9512 64.7207 26.0811C64.9964 26.2087 65.2072 26.3875 65.353 26.6177C65.5011 26.8478 65.5752 27.1178 65.5752 27.4277C65.5752 27.6602 65.533 27.8721 65.4487 28.0635C65.3667 28.2549 65.2459 28.4212 65.0864 28.5625C64.9269 28.7015 64.7332 28.8097 64.5054 28.8872C64.2775 28.9624 64.0189 29 63.7295 29H61.8906V24.0234H62.8374V28.2617H63.7295C63.9346 28.2617 64.1043 28.223 64.2388 28.1455C64.3732 28.068 64.4735 27.9655 64.5396 27.8379C64.6056 27.7103 64.6387 27.5713 64.6387 27.4209C64.6387 27.2728 64.6056 27.1383 64.5396 27.0176C64.4735 26.8968 64.3732 26.8011 64.2388 26.7305C64.1043 26.6598 63.9346 26.6245 63.7295 26.6245H62.5229V25.8862ZM66.9937 24.0234V29H66.0537V24.0234H66.9937ZM68.9541 24.0234H69.8975V28.2617H71.3604V24.0234H72.3003V28.2617H73.7495V24.0234H74.6895V29H68.9541V24.0234ZM79.9893 24.0234V24.7651H77.5591V24.0234H79.9893ZM80.6831 24.0234V29H79.7397V24.0234H80.6831ZM77.4087 24.0234H78.3452L78.2222 26.5083C78.2039 26.8752 78.1709 27.1965 78.123 27.4722C78.0752 27.7479 78.0103 27.9837 77.9282 28.1797C77.8462 28.3734 77.7437 28.5306 77.6206 28.6514C77.4976 28.7721 77.3517 28.861 77.1831 28.918C77.0168 28.9727 76.8231 29 76.6021 29H76.3662V28.2617L76.4995 28.248C76.6157 28.2389 76.716 28.2104 76.8003 28.1626C76.8869 28.1147 76.9609 28.043 77.0225 27.9473C77.084 27.8493 77.1341 27.724 77.1729 27.5713C77.2139 27.4186 77.2458 27.2329 77.2686 27.0142C77.2936 26.7954 77.3118 26.5391 77.3232 26.2451L77.4087 24.0234ZM85.9453 28.2617V29H83.2998V28.2617H85.9453ZM83.5869 24.0234V29H82.647V24.0234H83.5869ZM85.6001 26.0776V26.7988H83.2998V26.0776H85.6001ZM85.9351 24.0234V24.7651H83.2998V24.0234H85.9351ZM90.8999 26.0776V26.8159H88.2817V26.0776H90.8999ZM88.5381 24.0234V29H87.5981V24.0234H88.5381ZM91.5972 24.0234V29H90.6572V24.0234H91.5972ZM96.856 26.0776V26.8159H94.2378V26.0776H96.856ZM94.4941 24.0234V29H93.5542V24.0234H94.4941ZM97.5532 24.0234V29H96.6133V24.0234H97.5532ZM100.153 25.8862H101.359C101.744 25.8862 102.075 25.9512 102.351 26.0811C102.626 26.2087 102.837 26.3875 102.983 26.6177C103.131 26.8478 103.205 27.1178 103.205 27.4277C103.205 27.6602 103.163 27.8721 103.079 28.0635C102.997 28.2549 102.876 28.4212 102.716 28.5625C102.557 28.7015 102.363 28.8097 102.135 28.8872C101.907 28.9624 101.649 29 101.359 29H99.5205V24.0234H100.467V28.2617H101.359C101.564 28.2617 101.734 28.223 101.869 28.1455C102.003 28.068 102.103 27.9655 102.169 27.8379C102.236 27.7103 102.269 27.5713 102.269 27.4209C102.269 27.2728 102.236 27.1383 102.169 27.0176C102.103 26.8968 102.003 26.8011 101.869 26.7305C101.734 26.6598 101.564 26.6245 101.359 26.6245H100.153V25.8862ZM104.624 24.0234V29H103.684V24.0234H104.624ZM109.886 28.2617V29H107.24V28.2617H109.886ZM107.527 24.0234V29H106.587V24.0234H107.527ZM109.541 26.0776V26.7988H107.24V26.0776H109.541ZM109.875 24.0234V24.7651H107.24V24.0234H109.875ZM117.194 27.3628H118.134C118.109 27.6955 118.016 27.9906 117.857 28.248C117.697 28.5033 117.475 28.7038 117.19 28.8496C116.906 28.9954 116.56 29.0684 116.155 29.0684C115.843 29.0684 115.561 29.0137 115.311 28.9043C115.062 28.7926 114.849 28.6343 114.671 28.4292C114.496 28.2218 114.361 27.9735 114.268 27.6841C114.175 27.3924 114.128 27.0654 114.128 26.7031V26.3237C114.128 25.9614 114.176 25.6344 114.271 25.3428C114.367 25.0511 114.504 24.8027 114.682 24.5977C114.862 24.3903 115.077 24.2308 115.328 24.1191C115.581 24.0075 115.863 23.9517 116.175 23.9517C116.581 23.9517 116.924 24.0269 117.204 24.1772C117.484 24.3254 117.702 24.5293 117.857 24.7891C118.012 25.0488 118.105 25.3473 118.137 25.6846H117.197C117.179 25.4749 117.133 25.2972 117.061 25.1514C116.99 25.0055 116.883 24.895 116.739 24.8198C116.598 24.7424 116.41 24.7036 116.175 24.7036C115.993 24.7036 115.832 24.7378 115.693 24.8062C115.557 24.8745 115.443 24.9771 115.352 25.1138C115.26 25.2482 115.192 25.4168 115.146 25.6196C115.101 25.8201 115.078 26.0526 115.078 26.3169V26.7031C115.078 26.9561 115.099 27.1828 115.14 27.3833C115.181 27.5838 115.244 27.7536 115.331 27.8926C115.418 28.0316 115.529 28.1375 115.666 28.2104C115.803 28.2834 115.966 28.3198 116.155 28.3198C116.385 28.3198 116.572 28.2834 116.715 28.2104C116.861 28.1375 116.972 28.0304 117.047 27.8892C117.124 27.7479 117.173 27.5724 117.194 27.3628ZM120.781 27.4961L122.883 24.0234H123.827V29H122.883V25.5273L120.781 29H119.841V24.0234H120.781V27.4961ZM128.696 27.3628H129.636C129.611 27.6955 129.518 27.9906 129.359 28.248C129.199 28.5033 128.977 28.7038 128.692 28.8496C128.408 28.9954 128.062 29.0684 127.657 29.0684C127.345 29.0684 127.063 29.0137 126.812 28.9043C126.564 28.7926 126.351 28.6343 126.173 28.4292C125.998 28.2218 125.863 27.9735 125.77 27.6841C125.677 27.3924 125.63 27.0654 125.63 26.7031V26.3237C125.63 25.9614 125.678 25.6344 125.773 25.3428C125.869 25.0511 126.006 24.8027 126.184 24.5977C126.364 24.3903 126.579 24.2308 126.83 24.1191C127.083 24.0075 127.365 23.9517 127.677 23.9517C128.083 23.9517 128.426 24.0269 128.706 24.1772C128.986 24.3254 129.204 24.5293 129.359 24.7891C129.514 25.0488 129.607 25.3473 129.639 25.6846H128.699C128.681 25.4749 128.635 25.2972 128.562 25.1514C128.492 25.0055 128.385 24.895 128.241 24.8198C128.1 24.7424 127.912 24.7036 127.677 24.7036C127.495 24.7036 127.334 24.7378 127.195 24.8062C127.059 24.8745 126.945 24.9771 126.854 25.1138C126.762 25.2482 126.694 25.4168 126.648 25.6196C126.603 25.8201 126.58 26.0526 126.58 26.3169V26.7031C126.58 26.9561 126.601 27.1828 126.642 27.3833C126.683 27.5838 126.746 27.7536 126.833 27.8926C126.92 28.0316 127.031 28.1375 127.168 28.2104C127.305 28.2834 127.468 28.3198 127.657 28.3198C127.887 28.3198 128.074 28.2834 128.217 28.2104C128.363 28.1375 128.474 28.0304 128.549 27.8892C128.626 27.7479 128.675 27.5724 128.696 27.3628ZM133.397 24.0234V29H132.461V24.0234H133.397ZM134.942 24.0234V24.7651H130.933V24.0234H134.942ZM139.866 28.2617V29H137.221V28.2617H139.866ZM137.508 24.0234V29H136.568V24.0234H137.508ZM139.521 26.0776V26.7988H137.221V26.0776H139.521ZM139.856 24.0234V24.7651H137.221V24.0234H139.856ZM141.929 24.0234H142.743L144.103 27.7695L145.46 24.0234H146.277L144.428 29H143.775L141.929 24.0234ZM141.519 24.0234H142.315L142.459 27.4653V29H141.519V24.0234ZM145.887 24.0234H146.687V29H145.747V27.4653L145.887 24.0234ZM149.287 25.8862H150.493C150.878 25.8862 151.209 25.9512 151.484 26.0811C151.76 26.2087 151.971 26.3875 152.117 26.6177C152.265 26.8478 152.339 27.1178 152.339 27.4277C152.339 27.6602 152.297 27.8721 152.212 28.0635C152.13 28.2549 152.01 28.4212 151.85 28.5625C151.691 28.7015 151.497 28.8097 151.269 28.8872C151.041 28.9624 150.783 29 150.493 29H148.654V24.0234H149.601V28.2617H150.493C150.698 28.2617 150.868 28.223 151.002 28.1455C151.137 28.068 151.237 27.9655 151.303 27.8379C151.369 27.7103 151.402 27.5713 151.402 27.4209C151.402 27.2728 151.369 27.1383 151.303 27.0176C151.237 26.8968 151.137 26.8011 151.002 26.7305C150.868 26.6598 150.698 26.6245 150.493 26.6245H149.287V25.8862ZM153.757 24.0234V29H152.817V24.0234H153.757Z" fill="white"/>
</svg>
