<svg width="25" height="32" viewBox="0 0 25 32" fill="none" xmlns="http://www.w3.org/2000/svg">
<path d="M12.5263 15.0909V8.72727M12.5263 8.72727V3.02941C12.5263 1.9086 11.6177 1 10.4969 1C9.37605 1 8.46745 1.9086 8.46745 3.02941V18.7273L3.99961 16.4757C3.40589 16.1765 2.70548 16.1765 2.11176 16.4757L1.98936 16.5374C1.52113 16.7733 1.17914 17.2019 1.05292 17.7108C0.897069 18.3391 1.09083 19.0027 1.56027 19.4484L5.30078 23L10.9862 28.5795C11.9928 29.5674 13.2556 30.2543 14.6319 30.5625C15.9134 30.8496 17.2465 30.8095 18.5085 30.4461L18.6175 30.4147C19.3589 30.2012 20.0472 29.8345 20.638 29.3383L20.8011 29.2013C21.8836 28.2921 22.7362 27.1401 23.2893 25.8391C23.6268 25.0454 23.8008 24.1918 23.8008 23.3294V11.6367C23.8008 11.2289 23.6396 10.8375 23.3523 10.548C23.0621 10.2554 22.667 10.0909 22.2549 10.0909H22.1175C21.7449 10.0909 21.3807 10.2019 21.0714 10.4097L20.1929 11M12.5263 8.72727L12.8675 8.21133C13.2176 7.68201 13.81 7.36364 14.4446 7.36364C14.9486 7.36364 15.4318 7.5649 15.7869 7.92272L15.9124 8.04925C16.3433 8.48356 16.5851 9.07058 16.5851 9.68239V10.0909M16.5851 15.0909V10.0909M16.5851 10.0909L16.9895 9.47956C17.3002 9.00982 17.8258 8.72727 18.389 8.72727C18.9522 8.72727 19.4779 9.00982 19.7886 9.47956L19.8693 9.60162C20.0804 9.92075 20.1929 10.2949 20.1929 10.6775V11M20.1929 15.0909V11" stroke="white" stroke-width="2" stroke-linecap="round"/>
</svg>
