<svg width="343" height="294" viewBox="0 0 343 294" fill="none" xmlns="http://www.w3.org/2000/svg">
<g filter="url(#filter0_dd_323_3173)">
<path d="M338.609 287.515L181.337 3.58816C180.955 2.89902 179.964 2.90139 179.585 3.59235L61.3224 219.52C60.9574 220.186 61.4397 221 62.1995 221H140.043C140.407 221 140.742 220.803 140.918 220.485L180.317 149.371C180.698 148.683 181.687 148.684 182.067 149.372L258.923 288.484C259.099 288.802 259.435 289 259.799 289H337.735C338.497 289 338.979 288.182 338.609 287.515Z" fill="#E61E40"/>
<path d="M24.6497 289H239.155C239.907 289 240.39 288.201 240.04 287.535L213.022 236.035C212.849 235.706 212.508 235.5 212.136 235.5H53.0897C52.7256 235.5 52.3903 235.698 52.2143 236.017L23.7743 287.517C23.4062 288.183 23.8883 289 24.6497 289Z" fill="#E61E40"/>
<path d="M165.911 5.97621C166.451 5.01216 166.106 3.79358 165.142 3.25443C164.178 2.71528 162.959 3.05974 162.42 4.02379L164.166 5L165.911 5.97621ZM44.4863 219L42.7408 218.024L41.0763 221H44.4863V219ZM164.166 5L162.42 4.02379L42.7408 218.024L44.4863 219L46.2319 219.976L165.911 5.97621L164.166 5ZM44.4863 219V221H54.0007V219V217H44.4863V219Z" fill="#E61E40"/>
<path d="M28.4633 287H7.43164L35.4739 237.5H44.9882" stroke="#E61E40" stroke-width="4"/>
<path d="M54.002 219L52.2512 218.033L50.6128 221H54.002V219ZM179.815 7C180.919 7 181.815 6.10457 181.815 5C181.815 3.89543 180.919 3 179.815 3V5V7ZM164.169 3C163.064 3 162.169 3.89543 162.169 5C162.169 6.10457 163.064 7 164.169 7V5V3ZM172.181 5L170.43 4.03316L52.2512 218.033L54.002 219L55.7527 219.967L173.932 5.96684L172.181 5ZM179.815 5V3H172.181V5V7H179.815V5ZM172.181 5V3H164.169V5V7H172.181V5ZM54.002 219V221H62.5148V219V217H54.002V219Z" fill="#E61E40"/>
<path d="M16.4453 287L44.4875 237.5H53.5011" stroke="#E61E40" stroke-width="4" stroke-linecap="round"/>
<path d="M175.684 150L251.798 287H260.311" stroke="#E61E40" stroke-width="4"/>
</g>
<defs>
<filter id="filter0_dd_323_3173" x="0" y="0" width="342.736" height="294" filterUnits="userSpaceOnUse" color-interpolation-filters="sRGB">
<feFlood flood-opacity="0" result="BackgroundImageFix"/>
<feColorMatrix in="SourceAlpha" type="matrix" values="0 0 0 0 0 0 0 0 0 0 0 0 0 0 0 0 0 0 127 0" result="hardAlpha"/>
<feMorphology radius="1" operator="dilate" in="SourceAlpha" result="effect1_dropShadow_323_3173"/>
<feOffset dy="1"/>
<feGaussianBlur stdDeviation="1.5"/>
<feColorMatrix type="matrix" values="0 0 0 0 0 0 0 0 0 0 0 0 0 0 0 0 0 0 0.15 0"/>
<feBlend mode="normal" in2="BackgroundImageFix" result="effect1_dropShadow_323_3173"/>
<feColorMatrix in="SourceAlpha" type="matrix" values="0 0 0 0 0 0 0 0 0 0 0 0 0 0 0 0 0 0 127 0" result="hardAlpha"/>
<feOffset dy="1"/>
<feGaussianBlur stdDeviation="1"/>
<feColorMatrix type="matrix" values="0 0 0 0 0 0 0 0 0 0 0 0 0 0 0 0 0 0 0.3 0"/>
<feBlend mode="normal" in2="effect1_dropShadow_323_3173" result="effect2_dropShadow_323_3173"/>
<feBlend mode="normal" in="SourceGraphic" in2="effect2_dropShadow_323_3173" result="shape"/>
</filter>
</defs>
</svg>
