<svg width="322" height="322" viewBox="0 0 322 322" fill="none" xmlns="http://www.w3.org/2000/svg">
<path fill-rule="evenodd" clip-rule="evenodd" d="M3.26933 299.605H1.75761C0.986056 299.605 0.504785 298.768 0.893351 298.102L29.7879 248.531C29.9671 248.224 30.2964 248.035 30.6521 248.035H33.0428L3.26933 299.605ZM9.29179 299.605H5.5789L35.3523 248.035H39.0662L9.29179 299.605ZM321.145 298.103C321.532 298.77 321.051 299.605 320.28 299.605H240.971C240.614 299.605 240.284 299.415 240.105 299.106L161.882 164.018C161.497 163.353 160.537 163.353 160.151 164.017L120.052 233.072C119.873 233.38 119.543 233.57 119.186 233.57H49.7273L166.378 31.5244L321.145 298.103ZM192.526 248.035C192.89 248.035 193.225 248.233 193.401 248.551L220.851 298.121C221.22 298.788 220.738 299.605 219.976 299.605H11.6023L41.3758 248.035H192.526ZM159.406 22.5019C159.789 21.8344 160.752 21.8323 161.138 22.498L162.2 24.3271L41.3943 233.57H39.9705C39.2018 233.57 38.7206 232.739 39.1033 232.072L159.406 22.5019ZM165.22 29.5292L47.4178 233.57H43.7039L163.358 26.3222L165.22 29.5292Z" fill="#E61E40"/>
<path d="M158.483 165.622L234.798 298.262C234.923 298.479 235.154 298.613 235.405 298.613L243.5 298.613" stroke="#E61E40" stroke-width="2" stroke-linecap="square"/>
</svg>
